<svg width="840" height="228" viewBox="0 0 840 228" fill="none" xmlns="http://www.w3.org/2000/svg">
<path d="M189.9 207V207.2H190.255L190.071 206.896L189.9 207ZM112.2 207L112.023 207.093L112.079 207.2H112.2V207ZM81.3 148.5L81.4769 148.407L81.1 148.5H81.3ZM81.3 207V207.2H81.5V207H81.3ZM14.1 207H13.9V207.2H14.1V207ZM14.1 45V44.8H13.9V45H14.1ZM81.3 45H81.5V44.8H81.3V45ZM81.3 99.3H81.1V100.069L81.4747 99.3974L81.3 99.3ZM111.6 45V44.8H111.483L111.425 44.9025L111.6 45ZM186 45L186.171 45.1044L186.357 44.8H186V45ZM138.6 122.4L138.429 122.296L138.366 122.399L138.429 122.504L138.6 122.4ZM189.9 206.8H112.2V207.2H189.9V206.8ZM112.377 206.907L81.4769 148.407L81.1232 148.593L112.023 207.093L112.377 206.907ZM81.1 148.5V207H81.5V148.5H81.1ZM81.3 206.8H14.1V207.2H81.3V206.8ZM14.3 207V45H13.9V207H14.3ZM14.1 45.2H81.3V44.8H14.1V45.2ZM81.1 45V99.3H81.5V45H81.1ZM81.4747 99.3974L111.775 45.0974L111.425 44.9025L81.1254 99.2025L81.4747 99.3974ZM111.6 45.2H186V44.8H111.6V45.2ZM185.829 44.8955L138.429 122.296L138.771 122.504L186.171 45.1044L185.829 44.8955ZM138.429 122.504L189.729 207.104L190.071 206.896L138.771 122.296L138.429 122.504ZM365.149 45H365.349V44.8H365.149V45ZM365.149 100.8V101H365.349V100.8H365.149ZM314.749 100.8V100.6H314.549V100.8H314.749ZM314.749 207V207.2H314.949V207H314.749ZM248.749 207H248.549V207.2H248.749V207ZM248.749 100.8H248.949V100.6H248.749V100.8ZM198.049 100.8H197.849V101H198.049V100.8ZM198.049 45V44.8H197.849V45H198.049ZM364.949 45V100.8H365.349V45H364.949ZM365.149 100.6H314.749V101H365.149V100.6ZM314.549 100.8V207H314.949V100.8H314.549ZM314.749 206.8H248.749V207.2H314.749V206.8ZM248.949 207V100.8H248.549V207H248.949ZM248.749 100.6H198.049V101H248.749V100.6ZM198.249 100.8V45H197.849V100.8H198.249ZM198.049 45.2H365.149V44.8H198.049V45.2ZM544.029 189L544.163 189.148L544.164 189.147L544.029 189ZM407.229 189L407.093 189.147L407.094 189.148L407.229 189ZM407.229 63.3L407.363 63.448L407.364 63.4471L407.229 63.3ZM544.029 63.3L543.893 63.4471L543.894 63.448L544.029 63.3ZM455.229 147L455.085 147.139L455.087 147.141L455.229 147ZM495.729 147L495.587 146.859L495.585 146.861L495.729 147ZM495.729 105.3L495.582 105.436L495.587 105.441L495.729 105.3ZM455.229 105L455.087 104.859L455.085 104.861L455.229 105ZM543.894 188.852C526.338 204.813 503.589 212.8 475.629 212.8V213.2C503.669 213.2 526.52 205.187 544.163 189.148L543.894 188.852ZM475.629 212.8C447.669 212.8 424.92 204.813 407.363 188.852L407.094 189.148C424.738 205.187 447.589 213.2 475.629 213.2V212.8ZM407.364 188.853C389.809 172.694 381.029 151.749 381.029 126H380.629C380.629 151.851 389.449 172.906 407.093 189.147L407.364 188.853ZM381.029 126C381.029 100.251 389.809 79.4066 407.363 63.448L407.094 63.152C389.449 79.1934 380.629 100.149 380.629 126H381.029ZM407.364 63.4471C424.921 47.2868 447.67 39.2 475.629 39.2V38.8C447.588 38.8 424.737 46.9132 407.093 63.1528L407.364 63.4471ZM475.629 39.2C503.588 39.2 526.337 47.2868 543.893 63.4471L544.164 63.1528C526.521 46.9132 503.67 38.8 475.629 38.8V39.2ZM543.894 63.448C561.449 79.4066 570.229 100.251 570.229 126H570.629C570.629 100.149 561.809 79.1934 544.163 63.152L543.894 63.448ZM570.229 126C570.229 151.749 561.449 172.694 543.893 188.853L544.164 189.147C561.809 172.906 570.629 151.851 570.629 126H570.229ZM455.087 147.141C460.528 152.582 467.38 155.3 475.629 155.3V154.9C467.478 154.9 460.73 152.218 455.37 146.859L455.087 147.141ZM475.629 155.3C483.878 155.3 490.632 152.582 495.873 147.139L495.585 146.861C490.426 152.218 483.78 154.9 475.629 154.9V155.3ZM495.87 147.141C501.313 141.699 504.029 134.646 504.029 126H503.629C503.629 134.554 500.945 141.501 495.587 146.859L495.87 147.141ZM504.029 126C504.029 117.553 501.312 110.6 495.87 105.159L495.587 105.441C500.946 110.8 503.629 117.647 503.629 126H504.029ZM495.875 105.164C490.635 99.5199 483.88 96.7 475.629 96.7V97.1C483.778 97.1 490.423 99.8801 495.582 105.436L495.875 105.164ZM475.629 96.7C467.38 96.7 460.528 99.4181 455.087 104.859L455.37 105.141C460.73 99.7819 467.478 97.1 475.629 97.1V96.7ZM455.085 104.861C449.844 110.304 447.229 117.356 447.229 126H447.629C447.629 117.444 450.214 110.496 455.373 105.139L455.085 104.861ZM447.229 126C447.229 134.644 449.844 141.696 455.085 147.139L455.373 146.861C450.214 141.504 447.629 134.556 447.629 126H447.229ZM818.306 45H818.506V44.8H818.306V45ZM818.306 207V207.2H818.506V207H818.306ZM758.306 207H758.106V207.2H758.306V207ZM758.306 158.7H758.506V158.5H758.306V158.7ZM747.206 158.7V158.5H747.076L747.023 158.619L747.206 158.7ZM725.906 207V207.2H726.037L726.089 207.081L725.906 207ZM654.806 207L654.634 206.899L654.458 207.2H654.806V207ZM689.306 147.9L689.479 148.001L689.588 147.814L689.393 147.72L689.306 147.9ZM674.306 136.8L674.454 136.665L674.454 136.665L674.306 136.8ZM664.406 120.6L664.218 120.667L664.22 120.672L664.406 120.6ZM677.006 60.6L677.145 60.7441L677.146 60.7428L677.006 60.6ZM758.306 117.6V117.8H758.506V117.6H758.306ZM758.306 87.6H758.506V87.4H758.306V87.6ZM729.806 91.8L729.948 91.9414L729.948 91.9414L729.806 91.8ZM729.806 113.7L729.66 113.836L729.665 113.842L729.67 113.847L729.806 113.7ZM718.706 45.2H818.306V44.8H718.706V45.2ZM818.106 45V207H818.506V45H818.106ZM818.306 206.8H758.306V207.2H818.306V206.8ZM758.506 207V158.7H758.106V207H758.506ZM758.306 158.5H747.206V158.9H758.306V158.5ZM747.023 158.619L725.723 206.919L726.089 207.081L747.389 158.781L747.023 158.619ZM725.906 206.8H654.806V207.2H725.906V206.8ZM654.979 207.101L689.479 148.001L689.134 147.799L654.634 206.899L654.979 207.101ZM689.393 147.72C683.615 144.931 678.636 141.246 674.454 136.665L674.159 136.935C678.376 141.554 683.397 145.269 689.219 148.08L689.393 147.72ZM674.454 136.665C670.272 132.085 666.984 126.706 664.593 120.528L664.22 120.672C666.628 126.894 669.941 132.315 674.159 136.935L674.454 136.665ZM664.595 120.533C662.403 114.356 661.306 107.779 661.306 100.8H660.906C660.906 107.821 662.01 114.444 664.218 120.667L664.595 120.533ZM661.306 100.8C661.306 84.2467 666.589 70.9014 677.145 60.7441L676.868 60.4559C666.223 70.6986 660.906 84.1533 660.906 100.8H661.306ZM677.146 60.7428C687.703 50.3853 701.55 45.2 718.706 45.2V44.8C701.463 44.8 687.51 50.0147 676.866 60.4572L677.146 60.7428ZM741.506 117.8H758.306V117.4H741.506V117.8ZM758.506 117.6V87.6H758.106V117.6H758.506ZM758.306 87.4H741.506V87.8H758.306V87.4ZM741.506 87.4C736.468 87.4 732.512 88.8118 729.665 91.6586L729.948 91.9414C732.701 89.1882 736.545 87.8 741.506 87.8V87.4ZM729.665 91.6586C727.018 94.305 725.706 97.961 725.706 102.6H726.106C726.106 98.039 727.394 94.495 729.948 91.9414L729.665 91.6586ZM725.706 102.6C725.706 107.24 727.019 110.992 729.66 113.836L729.953 113.564C727.394 110.808 726.106 107.16 726.106 102.6H725.706ZM729.67 113.847C732.517 116.49 736.472 117.8 741.506 117.8V117.4C736.541 117.4 732.695 116.11 729.942 113.553L729.67 113.847Z" fill="black"/>
</svg>
