<svg width="910" height="291" viewBox="0 0 910 291" fill="none" xmlns="http://www.w3.org/2000/svg">
<path d="M17.6805 100.2L17.5442 100.346L17.5452 100.347L17.6805 100.2ZM17.6805 16.4L17.8158 16.5473L17.8167 16.5464L17.6805 16.4ZM104.08 14.6L103.95 14.7512L103.951 14.7521L104.08 14.6ZM122.48 51.6V51.8H122.699L122.68 51.5827L122.48 51.6ZM79.6805 51.6L79.4838 51.6364L79.5141 51.8H79.6805V51.6ZM73.8805 42.6L73.7563 42.7569L73.7605 42.76L73.8805 42.6ZM49.6805 44L49.5363 43.8613L49.5335 43.8643L49.6805 44ZM49.6805 72.4L49.5335 72.5357L49.5363 72.5386L49.6805 72.4ZM74.0805 73.6L73.9555 73.4438L73.9524 73.4464L74.0805 73.6ZM79.8805 63.8V63.6H79.7062L79.6823 63.7727L79.8805 63.8ZM122.88 63.8L123.079 63.8219L123.104 63.6H122.88V63.8ZM103.68 101.8L103.811 101.951L103.812 101.951L103.68 101.8ZM62.8805 115.8C44.2534 115.8 29.2384 110.546 17.8158 100.053L17.5452 100.347C29.0558 110.921 44.1742 116.2 62.8805 116.2V115.8ZM17.8167 100.054C6.39528 89.429 0.680469 75.4844 0.680469 58.2H0.280469C0.280469 75.5823 6.03233 89.6377 17.5442 100.346L17.8167 100.054ZM0.680469 58.2C0.680469 40.9156 6.39525 27.0382 17.8158 16.5473L17.5452 16.2527C6.03236 26.8284 0.280469 40.8177 0.280469 58.2H0.680469ZM17.8167 16.5464C29.2394 5.92061 44.2541 0.599994 62.8805 0.599994V0.199994C44.1736 0.199994 29.0548 5.54604 17.5442 16.2536L17.8167 16.5464ZM62.8805 0.599994C79.373 0.599994 93.0578 5.32049 103.95 14.7512L104.211 14.4488C93.2365 4.94617 79.4546 0.199994 62.8805 0.199994V0.599994ZM103.951 14.7521C114.841 24.0488 120.952 36.3322 122.281 51.6173L122.68 51.5827C121.342 36.2011 115.187 23.8179 104.21 14.4479L103.951 14.7521ZM122.48 51.4H79.6805V51.8H122.48V51.4ZM79.8771 51.5636C79.2004 47.9095 77.2366 44.8671 74.0005 42.44L73.7605 42.76C76.9244 45.1329 78.8272 48.0905 79.4838 51.6364L79.8771 51.5636ZM74.0046 42.4432C70.7688 39.8815 67.0582 38.6 62.8805 38.6V39C66.9694 39 70.5921 40.2518 73.7563 42.7568L74.0046 42.4432ZM62.8805 38.6C57.3675 38.6 52.9126 40.35 49.5363 43.8614L49.8246 44.1386C53.115 40.7167 57.4601 39 62.8805 39V38.6ZM49.5335 43.8643C46.2909 47.3772 44.6805 52.1639 44.6805 58.2H45.0805C45.0805 52.2361 46.6701 47.5561 49.8274 44.1357L49.5335 43.8643ZM44.6805 58.2C44.6805 64.2361 46.2909 69.0228 49.5335 72.5357L49.8274 72.2643C46.6701 68.8439 45.0805 64.1639 45.0805 58.2H44.6805ZM49.5363 72.5386C52.9126 76.05 57.3675 77.8 62.8805 77.8V77.4C57.4601 77.4 53.115 75.6833 49.8246 72.2614L49.5363 72.5386ZM62.8805 77.8C67.1927 77.8 70.9716 76.451 74.2085 73.7536L73.9524 73.4464C70.7893 76.0823 67.1016 77.4 62.8805 77.4V77.8ZM74.2054 73.7562C77.5746 71.0608 79.5376 67.7497 80.0786 63.8273L79.6823 63.7727C79.1567 67.5836 77.253 70.8059 73.9555 73.4438L74.2054 73.7562ZM79.8805 64H122.88V63.6H79.8805V64ZM122.682 63.7781C120.953 79.4658 114.575 92.0847 103.549 101.649L103.812 101.951C114.919 92.3153 121.341 79.6009 123.079 63.8219L122.682 63.7781ZM103.55 101.649C92.6571 111.08 79.1055 115.8 62.8805 115.8V116.2C79.1888 116.2 92.8371 111.453 103.811 101.951L103.55 101.649ZM220.363 55.4L220.28 55.2183L219.857 55.4127L220.289 55.5857L220.363 55.4ZM234.363 66.2L234.199 66.3141L234.201 66.3162L234.363 66.2ZM229.363 104L229.238 103.844L229.237 103.845L229.363 104ZM135.763 112H135.563V112.2H135.763V112ZM135.763 4V3.8H135.563V4H135.763ZM226.563 11.4L226.689 11.2442L226.689 11.2442L226.563 11.4ZM231.763 45.6L231.594 45.494L231.594 45.494L231.763 45.6ZM195.363 30.8L195.498 30.6526L195.498 30.6526L195.363 30.8ZM175.363 28.6V28.4H175.163V28.6H175.363ZM175.363 45.2H175.163V45.4H175.363V45.2ZM195.363 43L195.228 42.8526L195.228 42.8526L195.363 43ZM196.163 84L196.293 84.1528L196.299 84.147L196.163 84ZM196.163 71.2L196.028 71.347L196.028 71.347L196.163 71.2ZM175.363 68.8V68.6H175.163V68.8H175.363ZM175.363 86.2H175.163V86.4H175.363V86.2ZM220.289 55.5857C226.257 57.9727 230.89 61.5496 234.199 66.3141L234.528 66.0859C231.17 61.2504 226.47 57.6272 220.438 55.2143L220.289 55.5857ZM234.201 66.3162C237.507 70.9451 239.163 76.4366 239.163 82.8H239.563C239.563 76.3634 237.886 70.7882 234.526 66.0837L234.201 66.3162ZM239.163 82.8C239.163 91.5414 235.856 98.5498 229.238 103.844L229.488 104.156C236.204 98.7836 239.563 91.6586 239.563 82.8H239.163ZM229.237 103.845C222.749 109.142 214.064 111.8 203.163 111.8V112.2C214.129 112.2 222.911 109.525 229.49 104.155L229.237 103.845ZM203.163 111.8H135.763V112.2H203.163V111.8ZM135.963 112V4H135.563V112H135.963ZM135.763 4.2H202.163V3.8H135.763V4.2ZM202.163 4.2C212.264 4.2 220.349 6.65843 226.438 11.5558L226.689 11.2442C220.511 6.2749 212.329 3.8 202.163 3.8V4.2ZM226.438 11.5558C232.522 16.4498 235.563 22.9249 235.563 31H235.963C235.963 22.8084 232.871 16.2169 226.689 11.2442L226.438 11.5558ZM235.563 31C235.563 36.4325 234.239 41.2619 231.594 45.494L231.933 45.706C234.621 41.4048 235.963 36.5008 235.963 31H235.563ZM231.594 45.494C228.949 49.7249 225.181 52.9665 220.28 55.2183L220.447 55.5817C225.413 53.3001 229.244 50.0084 231.933 45.706L231.594 45.494ZM197.963 36.8C197.963 34.2209 197.147 32.1635 195.498 30.6526L195.228 30.9474C196.78 32.3698 197.563 34.3125 197.563 36.8H197.963ZM195.498 30.6526C193.85 29.1417 191.529 28.4 188.563 28.4V28.8C191.464 28.8 193.676 29.525 195.228 30.9474L195.498 30.6526ZM188.563 28.4H175.363V28.8H188.563V28.4ZM175.163 28.6V45.2H175.563V28.6H175.163ZM175.363 45.4H188.563V45H175.363V45.4ZM188.563 45.4C191.529 45.4 193.85 44.6583 195.498 43.1474L195.228 42.8526C193.676 44.275 191.464 45 188.563 45V45.4ZM195.498 43.1474C197.149 41.6345 197.963 39.5089 197.963 36.8H197.563C197.563 39.4244 196.778 41.4322 195.228 42.8526L195.498 43.1474ZM189.163 86.4C192.13 86.4 194.514 85.6579 196.292 84.1527L196.034 83.8473C194.346 85.2754 192.063 86 189.163 86V86.4ZM196.299 84.147C198.079 82.504 198.963 80.3144 198.963 77.6H198.563C198.563 80.2189 197.714 82.296 196.028 83.853L196.299 84.147ZM198.963 77.6C198.963 74.8856 198.079 72.696 196.299 71.053L196.028 71.347C197.714 72.904 198.563 74.9811 198.563 77.6H198.963ZM196.299 71.053C194.52 69.4111 192.134 68.6 189.163 68.6V69C192.059 69 194.34 69.7888 196.028 71.347L196.299 71.053ZM189.163 68.6H175.363V69H189.163V68.6ZM175.163 68.8V86.2H175.563V68.8H175.163ZM175.363 86.4H189.163V86H175.363V86.4ZM352.784 4H352.984V3.8H352.784V4ZM352.784 112V112.2H352.984V112H352.784ZM312.784 112H312.584V112.2H312.784V112ZM312.784 79.8H312.984V79.6H312.784V79.8ZM305.384 79.8V79.6H305.253L305.201 79.7193L305.384 79.8ZM291.184 112V112.2H291.314L291.367 112.081L291.184 112ZM243.784 112L243.611 111.899L243.435 112.2H243.784V112ZM266.784 72.6L266.956 72.7008L267.065 72.514L266.871 72.4199L266.784 72.6ZM256.784 65.2L256.931 65.0651L256.931 65.0651L256.784 65.2ZM250.184 54.4L249.995 54.4669L249.997 54.4722L250.184 54.4ZM258.584 14.4L258.722 14.5441L258.724 14.5428L258.584 14.4ZM312.784 52.4V52.6H312.984V52.4H312.784ZM312.784 32.4H312.984V32.2H312.784V32.4ZM293.784 35.2L293.925 35.3414L293.925 35.3414L293.784 35.2ZM293.784 49.8L293.637 49.9361L293.642 49.9415L293.648 49.9466L293.784 49.8ZM286.384 4.2H352.784V3.8H286.384V4.2ZM352.584 4V112H352.984V4H352.584ZM352.784 111.8H312.784V112.2H352.784V111.8ZM312.984 112V79.8H312.584V112H312.984ZM312.784 79.6H305.384V80H312.784V79.6ZM305.201 79.7193L291.001 111.919L291.367 112.081L305.567 79.8807L305.201 79.7193ZM291.184 111.8H243.784V112.2H291.184V111.8ZM243.956 112.101L266.956 72.7008L266.611 72.4992L243.611 111.899L243.956 112.101ZM266.871 72.4199C263.026 70.5639 259.714 68.1124 256.931 65.0651L256.636 65.3349C259.454 68.421 262.808 70.9027 266.697 72.7801L266.871 72.4199ZM256.931 65.0651C254.149 62.018 251.962 58.4396 250.37 54.3278L249.997 54.4722C251.605 58.6271 253.818 62.2487 256.636 65.3349L256.931 65.0651ZM250.372 54.3331C248.914 50.2226 248.184 45.8453 248.184 41.2H247.784C247.784 45.888 248.52 50.3107 249.995 54.4669L250.372 54.3331ZM248.184 41.2C248.184 30.18 251.7 21.3014 258.722 14.5441L258.445 14.2559C251.334 21.0986 247.784 30.0866 247.784 41.2H248.184ZM258.724 14.5428C265.747 7.65193 274.96 4.2 286.384 4.2V3.8C274.873 3.8 265.554 7.28139 258.444 14.2572L258.724 14.5428ZM301.584 52.6H312.784V52.2H301.584V52.6ZM312.984 52.4V32.4H312.584V52.4H312.984ZM312.784 32.2H301.584V32.6H312.784V32.2ZM301.584 32.2C298.212 32.2 295.556 33.1452 293.642 35.0586L293.925 35.3414C295.745 33.5215 298.289 32.6 301.584 32.6V32.2ZM293.642 35.0586C291.862 36.8383 290.984 39.2943 290.984 42.4H291.384C291.384 39.3723 292.238 37.0284 293.925 35.3414L293.642 35.0586ZM290.984 42.4C290.984 45.5063 291.863 48.0252 293.637 49.9361L293.93 49.6639C292.238 47.8415 291.384 45.4271 291.384 42.4H290.984ZM293.648 49.9466C295.561 51.7238 298.216 52.6 301.584 52.6V52.2C298.285 52.2 295.739 51.3429 293.92 49.6534L293.648 49.9466ZM544.505 112V112.2H544.852L544.679 111.9L544.505 112ZM494.705 112L494.526 112.088L494.581 112.2H494.705V112ZM473.105 68.2L473.285 68.1115L472.905 68.2H473.105ZM473.105 112V112.2H473.305V112H473.105ZM430.505 112H430.305V112.2H430.505V112ZM430.505 69.8H430.705L430.326 69.7116L430.505 69.8ZM409.705 112V112.2H409.83L409.885 112.088L409.705 112ZM359.905 112L359.732 111.9L359.559 112.2H359.905V112ZM392.505 55.6L392.679 55.7001L392.737 55.5997L392.678 55.4995L392.505 55.6ZM362.505 4V3.8H362.158L362.333 4.10052L362.505 4ZM410.105 4L410.283 3.90767L410.227 3.8H410.105V4ZM430.505 43.2L430.328 43.2923L430.705 43.2H430.505ZM430.505 4V3.8H430.305V4H430.505ZM473.105 4H473.305V3.8H473.105V4ZM473.105 44.8H472.905L473.283 44.8922L473.105 44.8ZM494.305 4V3.8H494.184L494.128 3.90778L494.305 4ZM541.905 4L542.078 4.10052L542.253 3.8H541.905V4ZM511.905 55.6L511.733 55.4995L511.674 55.5997L511.732 55.7001L511.905 55.6ZM544.505 111.8H494.705V112.2H544.505V111.8ZM494.885 111.912L473.285 68.1115L472.926 68.2885L494.526 112.088L494.885 111.912ZM472.905 68.2V112H473.305V68.2H472.905ZM473.105 111.8H430.505V112.2H473.105V111.8ZM430.705 112V69.8H430.305V112H430.705ZM430.326 69.7116L409.526 111.912L409.885 112.088L430.685 69.8884L430.326 69.7116ZM409.705 111.8H359.905V112.2H409.705V111.8ZM360.079 112.1L392.679 55.7001L392.332 55.4999L359.732 111.9L360.079 112.1ZM392.678 55.4995L362.678 3.89947L362.333 4.10052L392.333 55.7005L392.678 55.4995ZM362.505 4.2H410.105V3.8H362.505V4.2ZM409.928 4.09232L430.328 43.2923L430.683 43.1077L410.283 3.90767L409.928 4.09232ZM430.705 43.2V4H430.305V43.2H430.705ZM430.505 4.2H473.105V3.8H430.505V4.2ZM472.905 4V44.8H473.305V4H472.905ZM473.283 44.8922L494.483 4.09221L494.128 3.90778L472.928 44.7078L473.283 44.8922ZM494.305 4.2H541.905V3.8H494.305V4.2ZM541.733 3.89947L511.733 55.4995L512.078 55.7005L542.078 4.10052L541.733 3.89947ZM511.732 55.7001L544.332 112.1L544.679 111.9L512.079 55.4999L511.732 55.7001ZM633.179 4V3.8H633.091L633.032 3.86434L633.179 4ZM659.579 4H659.779V3.8H659.579V4ZM659.579 112V112.2H659.779V112H659.579ZM616.579 112H616.379V112.2H616.579V112ZM616.579 70H616.779V69.4788L616.43 69.8662L616.579 70ZM578.779 112V112.2H578.868L578.928 112.134L578.779 112ZM551.779 112H551.579V112.2H551.779V112ZM551.779 4V3.8H551.579V4H551.779ZM594.779 4H594.979V3.8H594.779V4ZM594.779 45.6H594.579V46.1115L594.926 45.7357L594.779 45.6ZM633.179 4.2H659.579V3.8H633.179V4.2ZM659.379 4V112H659.779V4H659.379ZM659.579 111.8H616.579V112.2H659.579V111.8ZM616.779 112V70H616.379V112H616.779ZM616.43 69.8662L578.63 111.866L578.928 112.134L616.728 70.1338L616.43 69.8662ZM578.779 111.8H551.779V112.2H578.779V111.8ZM551.979 112V4H551.579V112H551.979ZM551.779 4.2H594.779V3.8H551.779V4.2ZM594.579 4V45.6H594.979V4H594.579ZM594.926 45.7357L633.326 4.13565L633.032 3.86434L594.632 45.4643L594.926 45.7357ZM690.141 100.2L690.005 100.346L690.006 100.347L690.141 100.2ZM690.141 16.4L690.277 16.5473L690.278 16.5464L690.141 16.4ZM776.541 14.6L776.41 14.7512L776.412 14.7521L776.541 14.6ZM794.941 51.6V51.8H795.16L795.141 51.5827L794.941 51.6ZM752.141 51.6L751.945 51.6364L751.975 51.8H752.141V51.6ZM746.341 42.6L746.217 42.7569L746.221 42.76L746.341 42.6ZM722.141 44L721.997 43.8613L721.994 43.8643L722.141 44ZM722.141 72.4L721.994 72.5357L721.997 72.5386L722.141 72.4ZM746.541 73.6L746.416 73.4438L746.413 73.4464L746.541 73.6ZM752.341 63.8V63.6H752.167L752.143 63.7727L752.341 63.8ZM795.341 63.8L795.54 63.8219L795.565 63.6H795.341V63.8ZM776.141 101.8L776.272 101.951L776.272 101.951L776.141 101.8ZM735.341 115.8C716.714 115.8 701.699 110.546 690.277 100.053L690.006 100.347C701.517 110.921 716.635 116.2 735.341 116.2V115.8ZM690.278 100.054C678.856 89.429 673.141 75.4844 673.141 58.2H672.741C672.741 75.5823 678.493 89.6377 690.005 100.346L690.278 100.054ZM673.141 58.2C673.141 40.9156 678.856 27.0382 690.277 16.5473L690.006 16.2527C678.493 26.8284 672.741 40.8177 672.741 58.2H673.141ZM690.278 16.5464C701.7 5.92061 716.715 0.599994 735.341 0.599994V0.199994C716.634 0.199994 701.516 5.54604 690.005 16.2536L690.278 16.5464ZM735.341 0.599994C751.834 0.599994 765.519 5.32049 776.41 14.7512L776.672 14.4488C765.697 4.94617 751.916 0.199994 735.341 0.199994V0.599994ZM776.412 14.7521C787.302 24.0488 793.413 36.3322 794.742 51.6173L795.141 51.5827C793.803 36.2011 787.648 23.8179 776.671 14.4479L776.412 14.7521ZM794.941 51.4H752.141V51.8H794.941V51.4ZM752.338 51.5636C751.661 47.9095 749.698 44.8671 746.461 42.44L746.221 42.76C749.385 45.1329 751.288 48.0905 751.945 51.6364L752.338 51.5636ZM746.466 42.4432C743.23 39.8815 739.519 38.6 735.341 38.6V39C739.43 39 743.053 40.2518 746.217 42.7568L746.466 42.4432ZM735.341 38.6C729.828 38.6 725.374 40.35 721.997 43.8614L722.286 44.1386C725.576 40.7167 729.921 39 735.341 39V38.6ZM721.994 43.8643C718.752 47.3772 717.141 52.1639 717.141 58.2H717.541C717.541 52.2361 719.131 47.5561 722.288 44.1357L721.994 43.8643ZM717.141 58.2C717.141 64.2361 718.752 69.0228 721.994 72.5357L722.288 72.2643C719.131 68.8439 717.541 64.1639 717.541 58.2H717.141ZM721.997 72.5386C725.374 76.05 729.828 77.8 735.341 77.8V77.4C729.921 77.4 725.576 75.6833 722.286 72.2614L721.997 72.5386ZM735.341 77.8C739.654 77.8 743.433 76.451 746.669 73.7536L746.413 73.4464C743.25 76.0823 739.563 77.4 735.341 77.4V77.8ZM746.666 73.7562C750.036 71.0608 751.999 67.7497 752.54 63.8273L752.143 63.7727C751.618 67.5836 749.714 70.8059 746.416 73.4438L746.666 73.7562ZM752.341 64H795.341V63.6H752.341V64ZM795.143 63.7781C793.414 79.4658 787.036 92.0847 776.01 101.649L776.272 101.951C787.38 92.3153 793.802 79.6009 795.54 63.8219L795.143 63.7781ZM776.01 101.649C765.118 111.08 751.566 115.8 735.341 115.8V116.2C751.65 116.2 765.298 111.453 776.272 101.951L776.01 101.649ZM897.424 41.2L897.287 41.3451L897.287 41.3451L897.424 41.2ZM808.224 112H808.024V112.2H808.224V112ZM808.224 4V3.8H808.024V4H808.224ZM847.424 4H847.624V3.8H847.424V4ZM847.424 30H847.224V30.2H847.424V30ZM867.024 78.2L867.16 78.347L867.16 78.3466L867.024 78.2ZM867.024 64L866.883 64.1414L866.888 64.1469L866.894 64.1518L867.024 64ZM847.424 61.4V61.2H847.224V61.4H847.424ZM847.424 80.6H847.224V80.8H847.424V80.6ZM865.224 30.2C878.787 30.2 889.466 33.922 897.287 41.3451L897.562 41.0549C889.649 33.5446 878.862 29.8 865.224 29.8V30.2ZM897.287 41.3451C905.108 48.7684 909.024 58.6462 909.024 71H909.424C909.424 58.5538 905.474 48.5649 897.562 41.0549L897.287 41.3451ZM909.024 71C909.024 83.3538 905.108 93.2316 897.287 100.655L897.562 100.945C905.474 93.4351 909.424 83.4462 909.424 71H909.024ZM897.287 100.655C889.466 108.078 878.787 111.8 865.224 111.8V112.2C878.862 112.2 889.649 108.455 897.562 100.945L897.287 100.655ZM865.224 111.8H808.224V112.2H865.224V111.8ZM808.424 112V4H808.024V112H808.424ZM808.224 4.2H847.424V3.8H808.224V4.2ZM847.224 4V30H847.624V4H847.224ZM847.424 30.2H865.224V29.8H847.424V30.2ZM860.024 80.8C862.995 80.8 865.381 79.9888 867.16 78.347L866.889 78.053C865.201 79.6111 862.92 80.4 860.024 80.4V80.8ZM867.16 78.3466C869.076 76.5678 870.024 74.11 870.024 71H869.624C869.624 74.0233 868.706 76.3656 866.888 78.0534L867.16 78.3466ZM870.024 71C870.024 67.8906 869.076 65.4953 867.154 63.8481L866.894 64.1518C868.706 65.7047 869.624 67.9761 869.624 71H870.024ZM867.166 63.8586C865.388 62.0805 862.999 61.2 860.024 61.2V61.6C862.916 61.6 865.194 62.4528 866.883 64.1414L867.166 63.8586ZM860.024 61.2H847.424V61.6H860.024V61.2ZM847.224 61.4V80.6H847.624V61.4H847.224ZM847.424 80.8H860.024V80.4H847.424V80.8ZM47.4656 275.2L47.3294 275.346L47.3303 275.347L47.4656 275.2ZM47.4656 191.4L47.6009 191.547L47.6018 191.546L47.4656 191.4ZM133.866 189.6L133.735 189.751L133.736 189.752L133.866 189.6ZM152.266 226.6V226.8H152.484L152.465 226.583L152.266 226.6ZM109.466 226.6L109.269 226.636L109.299 226.8H109.466V226.6ZM103.666 217.6L103.541 217.757L103.546 217.76L103.666 217.6ZM79.4656 219L79.3214 218.861L79.3187 218.864L79.4656 219ZM79.4656 247.4L79.3186 247.536L79.3215 247.539L79.4656 247.4ZM103.866 248.6L103.741 248.444L103.738 248.446L103.866 248.6ZM109.666 238.8V238.6H109.491L109.468 238.773L109.666 238.8ZM152.666 238.8L152.864 238.822L152.889 238.6H152.666V238.8ZM133.466 276.8L133.597 276.951L133.597 276.951L133.466 276.8ZM92.6656 290.8C74.0385 290.8 59.0236 285.546 47.6009 275.053L47.3303 275.347C58.841 285.921 73.9594 291.2 92.6656 291.2V290.8ZM47.6018 275.054C36.1804 264.429 30.4656 250.484 30.4656 233.2H30.0656C30.0656 250.582 35.8175 264.638 47.3294 275.346L47.6018 275.054ZM30.4656 233.2C30.4656 215.916 36.1804 202.038 47.6009 191.547L47.3303 191.253C35.8175 201.828 30.0656 215.818 30.0656 233.2H30.4656ZM47.6018 191.546C59.0246 180.921 74.0392 175.6 92.6656 175.6V175.2C73.9587 175.2 58.84 180.546 47.3294 191.254L47.6018 191.546ZM92.6656 175.6C109.158 175.6 122.843 180.32 133.735 189.751L133.997 189.449C123.022 179.946 109.24 175.2 92.6656 175.2V175.6ZM133.736 189.752C144.626 199.049 150.737 211.332 152.066 226.617L152.465 226.583C151.127 211.201 144.972 198.818 133.995 189.448L133.736 189.752ZM152.266 226.4H109.466V226.8H152.266V226.4ZM109.662 226.564C108.986 222.909 107.022 219.867 103.786 217.44L103.546 217.76C106.71 220.133 108.612 223.091 109.269 226.636L109.662 226.564ZM103.79 217.443C100.554 214.881 96.8434 213.6 92.6656 213.6V214C96.7545 214 100.377 215.252 103.541 217.757L103.79 217.443ZM92.6656 213.6C87.1527 213.6 82.6978 215.35 79.3215 218.861L79.6098 219.139C82.9001 215.717 87.2452 214 92.6656 214V213.6ZM79.3187 218.864C76.076 222.377 74.4656 227.164 74.4656 233.2H74.8656C74.8656 227.236 76.4552 222.556 79.6126 219.136L79.3187 218.864ZM74.4656 233.2C74.4656 239.236 76.076 244.023 79.3187 247.536L79.6126 247.264C76.4552 243.844 74.8656 239.164 74.8656 233.2H74.4656ZM79.3215 247.539C82.6978 251.05 87.1527 252.8 92.6656 252.8V252.4C87.2452 252.4 82.9001 250.683 79.6098 247.261L79.3215 247.539ZM92.6656 252.8C96.9778 252.8 100.757 251.451 103.994 248.754L103.738 248.446C100.574 251.082 96.8867 252.4 92.6656 252.4V252.8ZM103.991 248.756C107.36 246.061 109.323 242.75 109.864 238.827L109.468 238.773C108.942 242.584 107.038 245.806 103.741 248.444L103.991 248.756ZM109.666 239H152.666V238.6H109.666V239ZM152.467 238.778C150.739 254.466 144.36 267.085 133.335 276.649L133.597 276.951C144.705 267.315 151.126 254.601 152.864 238.822L152.467 238.778ZM133.335 276.649C122.442 286.08 108.891 290.8 92.6656 290.8V291.2C108.974 291.2 122.622 286.453 133.597 276.951L133.335 276.649ZM268.748 275L268.883 275.148L268.884 275.147L268.748 275ZM177.548 275L177.413 275.147L177.414 275.148L177.548 275ZM177.548 191.2L177.683 191.348L177.684 191.347L177.548 191.2ZM268.748 191.2L268.613 191.347L268.614 191.348L268.748 191.2ZM209.548 247L209.404 247.139L209.407 247.141L209.548 247ZM236.548 247L236.407 246.859L236.404 246.861L236.548 247ZM236.548 219.2L236.402 219.336L236.407 219.341L236.548 219.2ZM209.548 219L209.407 218.859L209.404 218.861L209.548 219ZM268.614 274.852C256.924 285.479 241.775 290.8 223.148 290.8V291.2C241.856 291.2 257.106 285.854 268.883 275.148L268.614 274.852ZM223.148 290.8C204.522 290.8 189.373 285.479 177.683 274.852L177.414 275.148C189.19 285.854 204.441 291.2 223.148 291.2V290.8ZM177.684 274.853C165.995 264.094 160.148 250.149 160.148 233H159.748C159.748 250.251 165.635 264.306 177.413 275.147L177.684 274.853ZM160.148 233C160.148 215.851 165.995 201.973 177.683 191.348L177.414 191.052C165.635 201.76 159.748 215.749 159.748 233H160.148ZM177.684 191.347C189.374 180.587 204.523 175.2 223.148 175.2V174.8C204.441 174.8 189.189 180.213 177.413 191.053L177.684 191.347ZM223.148 175.2C241.774 175.2 256.923 180.587 268.613 191.347L268.884 191.053C257.107 180.213 241.856 174.8 223.148 174.8V175.2ZM268.614 191.348C280.302 201.973 286.148 215.851 286.148 233H286.548C286.548 215.749 280.662 201.76 268.883 191.052L268.614 191.348ZM286.148 233C286.148 250.149 280.302 264.094 268.613 274.853L268.884 275.147C280.662 264.306 286.548 250.251 286.548 233H286.148ZM209.407 247.141C213.047 250.782 217.633 252.6 223.148 252.6V252.2C217.73 252.2 213.249 250.418 209.69 246.859L209.407 247.141ZM223.148 252.6C228.664 252.6 233.184 250.782 236.693 247.139L236.404 246.861C232.979 250.418 228.566 252.2 223.148 252.2V252.6ZM236.69 247.141C240.332 243.499 242.148 238.779 242.148 233H241.748C241.748 238.688 239.965 243.301 236.407 246.859L236.69 247.141ZM242.148 233C242.148 227.353 240.331 222.7 236.69 219.059L236.407 219.341C239.966 222.9 241.748 227.447 241.748 233H242.148ZM236.695 219.064C233.188 215.287 228.666 213.4 223.148 213.4V213.8C228.564 213.8 232.976 215.647 236.402 219.336L236.695 219.064ZM223.148 213.4C217.633 213.4 213.047 215.218 209.407 218.859L209.69 219.141C213.249 215.582 217.73 213.8 223.148 213.8V213.4ZM209.404 218.861C205.897 222.504 204.148 227.223 204.148 233H204.548C204.548 227.31 206.267 222.696 209.693 219.139L209.404 218.861ZM204.148 233C204.148 238.777 205.897 243.496 209.404 247.139L209.693 246.861C206.267 243.304 204.548 238.69 204.548 233H204.148ZM488.8 287V287.2H489.034L488.998 286.969L488.8 287ZM447.2 287L447.002 287.027L447.026 287.2H447.2V287ZM441 242L441.198 241.973L441.112 241.35L440.823 241.908L441 242ZM417.6 287V287.2H417.721L417.777 287.092L417.6 287ZM403.6 287L403.422 287.092L403.478 287.2H403.6V287ZM380 241.4L380.178 241.308L379.889 240.751L379.802 241.372L380 241.4ZM373.6 287V287.2H373.774L373.798 287.028L373.6 287ZM332.4 287L332.202 286.972L332.169 287.2H332.4V287ZM347.8 179V178.8H347.626L347.602 178.972L347.8 179ZM388.2 179L388.382 178.917L388.328 178.8H388.2V179ZM410.6 227.8L410.418 227.883L410.598 228.276L410.781 227.885L410.6 227.8ZM433.4 179V178.8H433.273L433.219 178.915L433.4 179ZM471.6 179L471.798 178.969L471.771 178.8H471.6V179ZM488.8 286.8H447.2V287.2H488.8V286.8ZM447.398 286.973L441.198 241.973L440.802 242.027L447.002 287.027L447.398 286.973ZM440.823 241.908L417.423 286.908L417.777 287.092L441.177 242.092L440.823 241.908ZM417.6 286.8H403.6V287.2H417.6V286.8ZM403.778 286.908L380.178 241.308L379.822 241.492L403.422 287.092L403.778 286.908ZM379.802 241.372L373.402 286.972L373.798 287.028L380.198 241.428L379.802 241.372ZM373.6 286.8H332.4V287.2H373.6V286.8ZM332.598 287.028L347.998 179.028L347.602 178.972L332.202 286.972L332.598 287.028ZM347.8 179.2H388.2V178.8H347.8V179.2ZM388.018 179.083L410.418 227.883L410.782 227.717L388.382 178.917L388.018 179.083ZM410.781 227.885L433.581 179.085L433.219 178.915L410.419 227.715L410.781 227.885ZM433.4 179.2H471.6V178.8H433.4V179.2ZM471.403 179.031L488.602 287.031L488.998 286.969L471.798 178.969L471.403 179.031ZM567.291 179V178.8H567.091V179H567.291ZM611.691 179H611.891V178.8H611.691V179ZM611.691 287V287.2H611.891V287H611.691ZM567.291 287H567.091V287.2H567.291V287ZM567.291 251.8H567.491V251.6H567.291V251.8ZM545.691 251.8V251.6H545.491V251.8H545.691ZM545.691 287V287.2H545.891V287H545.691ZM501.291 287H501.091V287.2H501.291V287ZM501.291 179V178.8H501.091V179H501.291ZM545.691 179H545.891V178.8H545.691V179ZM545.691 213.4H545.491V213.6H545.691V213.4ZM567.291 213.4V213.6H567.491V213.4H567.291ZM567.291 179.2H611.691V178.8H567.291V179.2ZM611.491 179V287H611.891V179H611.491ZM611.691 286.8H567.291V287.2H611.691V286.8ZM567.491 287V251.8H567.091V287H567.491ZM567.291 251.6H545.691V252H567.291V251.6ZM545.491 251.8V287H545.891V251.8H545.491ZM545.691 286.8H501.291V287.2H545.691V286.8ZM501.491 287V179H501.091V287H501.491ZM501.291 179.2H545.691V178.8H501.291V179.2ZM545.491 179V213.4H545.891V179H545.491ZM545.691 213.6H567.291V213.2H545.691V213.6ZM567.491 213.4V179H567.091V213.4H567.491ZM733.788 275L733.922 275.148L733.923 275.147L733.788 275ZM642.588 275L642.452 275.147L642.453 275.148L642.588 275ZM642.588 191.2L642.722 191.348L642.723 191.347L642.588 191.2ZM733.788 191.2L733.652 191.347L733.653 191.348L733.788 191.2ZM674.588 247L674.443 247.139L674.446 247.141L674.588 247ZM701.588 247L701.446 246.859L701.443 246.861L701.588 247ZM701.588 219.2L701.441 219.336L701.446 219.341L701.588 219.2ZM674.588 219L674.446 218.859L674.443 218.861L674.588 219ZM733.653 274.852C721.963 285.479 706.814 290.8 688.188 290.8V291.2C706.895 291.2 722.146 285.854 733.922 275.148L733.653 274.852ZM688.188 290.8C669.561 290.8 654.412 285.479 642.722 274.852L642.453 275.148C654.229 285.854 669.48 291.2 688.188 291.2V290.8ZM642.723 274.853C631.034 264.094 625.188 250.149 625.188 233H624.788C624.788 250.251 630.674 264.306 642.452 275.147L642.723 274.853ZM625.188 233C625.188 215.851 631.034 201.973 642.722 191.348L642.453 191.052C630.674 201.76 624.788 215.749 624.788 233H625.188ZM642.723 191.347C654.413 180.587 669.562 175.2 688.188 175.2V174.8C669.48 174.8 654.229 180.213 642.452 191.053L642.723 191.347ZM688.188 175.2C706.813 175.2 721.962 180.587 733.652 191.347L733.923 191.053C722.146 180.213 706.895 174.8 688.188 174.8V175.2ZM733.653 191.348C745.341 201.973 751.188 215.851 751.188 233H751.588C751.588 215.749 745.701 201.76 733.922 191.052L733.653 191.348ZM751.188 233C751.188 250.149 745.341 264.094 733.652 274.853L733.923 275.147C745.701 264.306 751.588 250.251 751.588 233H751.188ZM674.446 247.141C678.087 250.782 682.672 252.6 688.188 252.6V252.2C682.77 252.2 678.288 250.418 674.729 246.859L674.446 247.141ZM688.188 252.6C693.703 252.6 698.223 250.782 701.732 247.139L701.443 246.861C698.018 250.418 693.605 252.2 688.188 252.2V252.6ZM701.729 247.141C705.371 243.499 707.188 238.779 707.188 233H706.788C706.788 238.688 705.004 243.301 701.446 246.859L701.729 247.141ZM707.188 233C707.188 227.353 705.37 222.7 701.729 219.059L701.446 219.341C705.005 222.9 706.788 227.447 706.788 233H707.188ZM701.734 219.064C698.227 215.287 693.705 213.4 688.188 213.4V213.8C693.603 213.8 698.015 215.647 701.441 219.336L701.734 219.064ZM688.188 213.4C682.672 213.4 678.087 215.218 674.446 218.859L674.729 219.141C678.288 215.582 682.77 213.8 688.188 213.8V213.4ZM674.443 218.861C670.936 222.504 669.188 227.223 669.188 233H669.588C669.588 227.31 671.306 222.696 674.732 219.139L674.443 218.861ZM669.188 233C669.188 238.777 670.936 243.496 674.443 247.139L674.732 246.861C671.306 243.304 669.588 238.69 669.588 233H669.188ZM850.172 137.8H850.372V137.6H850.172V137.8ZM850.172 163V163.2H850.372V163H850.172ZM790.572 163H790.372V163.2H790.572V163ZM790.572 137.8V137.6H790.372V137.8H790.572ZM845.972 179V178.8H845.884L845.825 178.864L845.972 179ZM872.372 179H872.572V178.8H872.372V179ZM872.372 287V287.2H872.572V287H872.372ZM829.372 287H829.172V287.2H829.372V287ZM829.372 245H829.572V244.479L829.223 244.866L829.372 245ZM791.572 287V287.2H791.661L791.721 287.134L791.572 287ZM764.572 287H764.372V287.2H764.572V287ZM764.572 179V178.8H764.372V179H764.572ZM807.572 179H807.772V178.8H807.572V179ZM807.572 220.6H807.372V221.112L807.719 220.736L807.572 220.6ZM849.972 137.8V163H850.372V137.8H849.972ZM850.172 162.8H790.572V163.2H850.172V162.8ZM790.772 163V137.8H790.372V163H790.772ZM790.572 138H850.172V137.6H790.572V138ZM845.972 179.2H872.372V178.8H845.972V179.2ZM872.172 179V287H872.572V179H872.172ZM872.372 286.8H829.372V287.2H872.372V286.8ZM829.572 287V245H829.172V287H829.572ZM829.223 244.866L791.423 286.866L791.721 287.134L829.521 245.134L829.223 244.866ZM791.572 286.8H764.572V287.2H791.572V286.8ZM764.772 287V179H764.372V287H764.772ZM764.572 179.2H807.572V178.8H764.572V179.2ZM807.372 179V220.6H807.772V179H807.372ZM807.719 220.736L846.119 179.136L845.825 178.864L807.425 220.464L807.719 220.736Z" fill="black"/>
</svg>
