<svg width="1052" height="342" viewBox="0 0 1052 342" fill="none" xmlns="http://www.w3.org/2000/svg">
<path d="M370.678 138V138.2H371.033L370.849 137.896L370.678 138ZM318.878 138L318.701 138.093L318.758 138.2H318.878V138ZM298.278 99L298.455 98.9066L298.078 99H298.278ZM298.278 138V138.2H298.478V138H298.278ZM253.478 138H253.278V138.2H253.478V138ZM253.478 30V29.8H253.278V30H253.478ZM298.278 30H298.478V29.8H298.278V30ZM298.278 66.2H298.078V66.9689L298.453 66.2975L298.278 66.2ZM318.478 30V29.8H318.361L318.303 29.9025L318.478 30ZM368.078 30L368.249 30.1044L368.435 29.8H368.078V30ZM336.478 81.6L336.308 81.4955L336.244 81.5995L336.307 81.7037L336.478 81.6ZM370.678 137.8H318.878V138.2H370.678V137.8ZM319.055 137.907L298.455 98.9066L298.101 99.0934L318.701 138.093L319.055 137.907ZM298.078 99V138H298.478V99H298.078ZM298.278 137.8H253.478V138.2H298.278V137.8ZM253.678 138V30H253.278V138H253.678ZM253.478 30.2H298.278V29.8H253.478V30.2ZM298.078 30V66.2H298.478V30H298.078ZM298.453 66.2975L318.653 30.0975L318.303 29.9025L298.103 66.1025L298.453 66.2975ZM318.478 30.2H368.078V29.8H318.478V30.2ZM367.908 29.8955L336.308 81.4955L336.649 81.7044L368.249 30.1044L367.908 29.8955ZM336.307 81.7037L370.507 138.104L370.849 137.896L336.649 81.4963L336.307 81.7037ZM464.447 30V29.8H464.33L464.273 29.9013L464.447 30ZM498.047 30H498.247V29.8H498.047V30ZM498.047 138V138.2H498.247V138H498.047ZM463.647 138L463.471 138.096L463.528 138.2H463.647V138ZM460.047 131.4L460.222 131.304L460.11 131.097L459.924 131.242L460.047 131.4ZM387.647 126L387.504 126.14L387.647 126ZM387.647 42.4L387.789 42.5405L387.79 42.5396L387.647 42.4ZM460.247 37.4L460.121 37.5555L460.304 37.7038L460.421 37.4987L460.247 37.4ZM419.447 94.8L419.271 94.8953L419.273 94.8984L419.447 94.8ZM426.447 102.2L426.339 102.369L426.348 102.374L426.447 102.2ZM450.847 99L450.991 99.1389L450.993 99.1365L450.847 99ZM450.847 69.6L450.991 69.4611L450.991 69.4611L450.847 69.6ZM422.447 69.6L422.591 69.7389L422.591 69.7389L422.447 69.6ZM464.447 30.2H498.047V29.8H464.447V30.2ZM497.847 30V138H498.247V30H497.847ZM498.047 137.8H463.647V138.2H498.047V137.8ZM463.822 137.904L460.222 131.304L459.871 131.496L463.471 138.096L463.822 137.904ZM459.924 131.242C450.894 138.28 440.404 141.8 428.447 141.8V142.2C440.489 142.2 451.066 138.653 460.17 131.558L459.924 131.242ZM428.447 141.8C411.693 141.8 398.147 136.483 387.79 125.86L387.504 126.14C397.946 136.85 411.6 142.2 428.447 142.2V141.8ZM387.79 125.86C377.432 115.237 372.247 101.29 372.247 84H371.847C371.847 101.376 377.061 115.43 387.504 126.14L387.79 125.86ZM372.247 84C372.247 66.8434 377.432 53.0303 387.789 42.5405L387.505 42.2595C377.062 52.8363 371.847 66.7566 371.847 84H372.247ZM387.79 42.5396C398.147 31.9166 411.693 26.6 428.447 26.6V26.2C411.6 26.2 397.946 31.55 387.504 42.2604L387.79 42.5396ZM428.447 26.6C440.536 26.6 451.092 30.2522 460.121 37.5555L460.373 37.2445C451.269 29.8811 440.624 26.2 428.447 26.2V26.6ZM460.421 37.4987L464.621 30.0987L464.273 29.9013L460.073 37.3013L460.421 37.4987ZM416.647 84.2C416.647 88.0978 417.521 91.6642 419.271 94.8953L419.623 94.7047C417.906 91.5358 417.047 88.0355 417.047 84.2H416.647ZM419.273 94.8984C421.022 97.9932 423.378 100.484 426.34 102.369L426.554 102.031C423.649 100.182 421.338 97.7401 419.621 94.7016L419.273 94.8984ZM426.348 102.374C429.447 104.125 432.881 105 436.647 105V104.6C432.946 104.6 429.58 103.741 426.545 102.026L426.348 102.374ZM436.647 105C442.43 105 447.217 103.047 450.991 99.1389L450.703 98.8611C447.01 102.686 442.33 104.6 436.647 104.6V105ZM450.993 99.1365C454.764 95.0966 456.647 90.1133 456.647 84.2H456.247C456.247 90.02 454.397 94.9034 450.701 98.8635L450.993 99.1365ZM456.647 84.2C456.647 78.2867 454.764 73.3686 450.991 69.4611L450.703 69.7389C454.397 73.5647 456.247 78.38 456.247 84.2H456.647ZM450.991 69.4611C447.217 65.5526 442.43 63.6 436.647 63.6V64C442.33 64 447.01 65.9141 450.703 69.7389L450.991 69.4611ZM436.647 63.6C430.863 63.6 426.077 65.5526 422.303 69.4611L422.591 69.7389C426.284 65.9141 430.964 64 436.647 64V63.6ZM422.303 69.4611C418.53 73.3686 416.647 78.2867 416.647 84.2H417.047C417.047 78.38 418.897 73.5647 422.591 69.7389L422.303 69.4611ZM640.1 138V138.2H640.455L640.271 137.896L640.1 138ZM588.3 138L588.123 138.093L588.179 138.2H588.3V138ZM567.7 99L567.877 98.9066L567.5 99H567.7ZM567.7 138V138.2H567.9V138H567.7ZM522.9 138H522.7V138.2H522.9V138ZM522.9 30V29.8H522.7V30H522.9ZM567.7 30H567.9V29.8H567.7V30ZM567.7 66.2H567.5V66.9689L567.875 66.2975L567.7 66.2ZM587.9 30V29.8H587.783L587.725 29.9025L587.9 30ZM637.5 30L637.671 30.1044L637.857 29.8H637.5V30ZM605.9 81.6L605.729 81.4955L605.666 81.5995L605.729 81.7037L605.9 81.6ZM640.1 137.8H588.3V138.2H640.1V137.8ZM588.477 137.907L567.877 98.9066L567.523 99.0934L588.123 138.093L588.477 137.907ZM567.5 99V138H567.9V99H567.5ZM567.7 137.8H522.9V138.2H567.7V137.8ZM523.1 138V30H522.7V138H523.1ZM522.9 30.2H567.7V29.8H522.9V30.2ZM567.5 30V66.2H567.9V30H567.5ZM567.875 66.2975L588.075 30.0975L587.725 29.9025L567.525 66.1025L567.875 66.2975ZM587.9 30.2H637.5V29.8H587.9V30.2ZM637.329 29.8955L605.729 81.4955L606.071 81.7044L637.671 30.1044L637.329 29.8955ZM605.729 81.7037L639.929 138.104L640.271 137.896L606.071 81.4963L605.729 81.7037ZM798.6 30H798.8V29.8H798.6V30ZM798.6 138V138.2H798.8V138H798.6ZM758.6 138H758.4V138.2H758.6V138ZM758.6 105.8H758.8V105.6H758.6V105.8ZM751.2 105.8V105.6H751.07L751.017 105.719L751.2 105.8ZM737 138V138.2H737.13L737.183 138.081L737 138ZM689.6 138L689.427 137.899L689.252 138.2H689.6V138ZM712.6 98.6L712.773 98.7008L712.882 98.514L712.687 98.4199L712.6 98.6ZM702.6 91.2L702.748 91.0651L702.748 91.0651L702.6 91.2ZM696 80.4L695.811 80.4669L695.813 80.4722L696 80.4ZM704.4 40.4L704.539 40.5441L704.54 40.5428L704.4 40.4ZM758.6 78.4V78.6H758.8V78.4H758.6ZM758.6 58.4H758.8V58.2H758.6V58.4ZM739.6 61.2L739.741 61.3414L739.741 61.3414L739.6 61.2ZM739.6 75.8L739.453 75.9361L739.458 75.9415L739.464 75.9466L739.6 75.8ZM732.2 30.2H798.6V29.8H732.2V30.2ZM798.4 30V138H798.8V30H798.4ZM798.6 137.8H758.6V138.2H798.6V137.8ZM758.8 138V105.8H758.4V138H758.8ZM758.6 105.6H751.2V106H758.6V105.6ZM751.017 105.719L736.817 137.919L737.183 138.081L751.383 105.881L751.017 105.719ZM737 137.8H689.6V138.2H737V137.8ZM689.773 138.101L712.773 98.7008L712.427 98.4992L689.427 137.899L689.773 138.101ZM712.687 98.4199C708.842 96.5639 705.53 94.1124 702.748 91.0651L702.452 91.3349C705.27 94.421 708.624 96.9027 712.513 98.7801L712.687 98.4199ZM702.748 91.0651C699.966 88.018 697.778 84.4396 696.187 80.3278L695.813 80.4722C697.422 84.6271 699.634 88.2487 702.452 91.3349L702.748 91.0651ZM696.188 80.3331C694.73 76.2226 694 71.8453 694 67.2H693.6C693.6 71.888 694.337 76.3107 695.812 80.4669L696.188 80.3331ZM694 67.2C694 56.18 697.516 47.3014 704.539 40.5441L704.261 40.2559C697.15 47.0986 693.6 56.0866 693.6 67.2H694ZM704.54 40.5428C711.563 33.6519 720.777 30.2 732.2 30.2V29.8C720.69 29.8 711.37 33.2814 704.26 40.2572L704.54 40.5428ZM747.4 78.6H758.6V78.2H747.4V78.6ZM758.8 78.4V58.4H758.4V78.4H758.8ZM758.6 58.2H747.4V58.6H758.6V58.2ZM747.4 58.2C744.028 58.2 741.372 59.1452 739.459 61.0586L739.741 61.3414C741.561 59.5215 744.105 58.6 747.4 58.6V58.2ZM739.459 61.0586C737.679 62.8383 736.8 65.2943 736.8 68.4H737.2C737.2 65.3723 738.054 63.0284 739.741 61.3414L739.459 61.0586ZM736.8 68.4C736.8 71.5063 737.679 74.0252 739.453 75.9361L739.747 75.6639C738.054 73.8415 737.2 71.4271 737.2 68.4H736.8ZM739.464 75.9466C741.378 77.7238 744.032 78.6 747.4 78.6V78.2C744.101 78.2 741.555 77.3429 739.736 75.6534L739.464 75.9466ZM134.998 207L135.142 206.86L135.142 206.86L134.998 207ZM134.998 291L135.142 291.14L135.142 291.14L134.998 291ZM69.5984 300.8L69.6953 300.625L69.3984 300.461V300.8H69.5984ZM69.5984 342V342.2H69.7984V342H69.5984ZM25.7984 342H25.5984V342.2H25.7984V342ZM25.7984 195V194.8H25.5984V195H25.7984ZM57.1984 195L57.3782 194.912L57.3234 194.8H57.1984V195ZM61.1984 203.2L61.0187 203.288L61.1331 203.522L61.3298 203.351L61.1984 203.2ZM99.9984 264L99.8546 263.861L99.8546 263.861L99.9984 264ZM100.198 234.2L100.052 234.336L100.055 234.339L100.198 234.2ZM75.7984 231L75.9002 231.172L75.9024 231.171L75.7984 231ZM68.7984 238.4L68.9726 238.498L68.9743 238.495L68.7984 238.4ZM71.7984 264L71.6522 264.136L71.6546 264.139L71.7984 264ZM94.1984 191.2C110.952 191.2 124.498 196.517 134.855 207.14L135.142 206.86C124.699 196.15 111.045 190.8 94.1984 190.8V191.2ZM134.855 207.14C145.213 217.763 150.398 231.71 150.398 249H150.798C150.798 231.624 145.584 217.57 135.142 206.86L134.855 207.14ZM150.398 249C150.398 266.29 145.213 280.237 134.855 290.86L135.142 291.14C145.584 280.43 150.798 266.376 150.798 249H150.398ZM134.855 290.86C124.498 301.483 110.952 306.8 94.1984 306.8V307.2C111.045 307.2 124.699 301.85 135.142 291.14L134.855 290.86ZM94.1984 306.8C85.2974 306.8 77.1309 304.741 69.6953 300.625L69.5016 300.975C76.9993 305.126 85.2329 307.2 94.1984 307.2V306.8ZM69.3984 300.8V342H69.7984V300.8H69.3984ZM69.5984 341.8H25.7984V342.2H69.5984V341.8ZM25.9984 342V195H25.5984V342H25.9984ZM25.7984 195.2H57.1984V194.8H25.7984V195.2ZM57.0187 195.088L61.0187 203.288L61.3782 203.112L57.3782 194.912L57.0187 195.088ZM61.3298 203.351C70.6258 195.25 81.5788 191.2 94.1984 191.2V190.8C81.4847 190.8 70.4377 194.883 61.067 203.049L61.3298 203.351ZM85.9984 270C91.6502 270 96.3696 268.046 100.142 264.139L99.8546 263.861C96.1607 267.687 91.5467 269.6 85.9984 269.6V270ZM100.142 264.139C104.048 260.099 105.998 255.047 105.998 249H105.598C105.598 254.953 103.682 259.901 99.8546 263.861L100.142 264.139ZM105.998 249C105.998 242.955 104.116 237.969 100.342 234.061L100.055 234.339C103.748 238.164 105.598 243.045 105.598 249H105.998ZM100.345 234.064C96.5715 230.021 91.7842 228 85.9984 228V228.4C91.6793 228.4 96.3587 230.379 100.052 234.336L100.345 234.064ZM85.9984 228C82.23 228 78.7937 228.943 75.6945 230.829L75.9024 231.171C78.9365 229.324 82.3003 228.4 85.9984 228.4V228ZM75.6967 230.828C72.73 232.581 70.372 235.075 68.6226 238.305L68.9743 238.495C70.6916 235.325 73.0002 232.886 75.9002 231.172L75.6967 230.828ZM68.6243 238.302C66.8718 241.402 65.9984 244.97 65.9984 249H66.3984C66.3984 245.03 67.2584 241.531 68.9726 238.498L68.6243 238.302ZM65.9984 249C65.9984 255.045 67.8809 260.096 71.6522 264.136L71.9447 263.864C68.2494 259.904 66.3984 254.955 66.3984 249H65.9984ZM71.6546 264.139C75.4283 268.047 80.2149 270 85.9984 270V269.6C80.3153 269.6 75.6353 267.686 71.9423 263.861L71.6546 264.139ZM256.884 195V194.8H256.768L256.71 194.901L256.884 195ZM290.484 195H290.684V194.8H290.484V195ZM290.484 303V303.2H290.684V303H290.484ZM256.084 303L255.909 303.096L255.966 303.2H256.084V303ZM252.484 296.4L252.66 296.304L252.547 296.097L252.361 296.242L252.484 296.4ZM180.084 291L179.941 291.14L180.084 291ZM180.084 207.4L180.227 207.541L180.228 207.54L180.084 207.4ZM252.684 202.4L252.559 202.555L252.742 202.704L252.858 202.499L252.684 202.4ZM211.884 259.8L211.708 259.895L211.71 259.898L211.884 259.8ZM218.884 267.2L218.777 267.369L218.786 267.374L218.884 267.2ZM243.284 264L243.428 264.139L243.431 264.136L243.284 264ZM243.284 234.6L243.428 234.461L243.428 234.461L243.284 234.6ZM214.884 234.6L215.028 234.739L215.028 234.739L214.884 234.6ZM256.884 195.2H290.484V194.8H256.884V195.2ZM290.284 195V303H290.684V195H290.284ZM290.484 302.8H256.084V303.2H290.484V302.8ZM256.26 302.904L252.66 296.304L252.309 296.496L255.909 303.096L256.26 302.904ZM252.361 296.242C243.332 303.28 232.842 306.8 220.884 306.8V307.2C232.927 307.2 243.504 303.653 252.607 296.558L252.361 296.242ZM220.884 306.8C204.131 306.8 190.585 301.483 180.228 290.86L179.941 291.14C190.384 301.85 204.038 307.2 220.884 307.2V306.8ZM180.228 290.86C169.87 280.237 164.684 266.29 164.684 249H164.284C164.284 266.376 169.499 280.43 179.941 291.14L180.228 290.86ZM164.684 249C164.684 231.843 169.87 218.03 180.227 207.541L179.942 207.259C169.499 217.836 164.284 231.757 164.284 249H164.684ZM180.228 207.54C190.585 196.917 204.131 191.6 220.884 191.6V191.2C204.038 191.2 190.384 196.55 179.941 207.26L180.228 207.54ZM220.884 191.6C232.974 191.6 243.529 195.252 252.559 202.555L252.81 202.244C243.706 194.881 233.061 191.2 220.884 191.2V191.6ZM252.858 202.499L257.058 195.099L256.71 194.901L252.51 202.301L252.858 202.499ZM209.084 249.2C209.084 253.098 209.958 256.664 211.709 259.895L212.06 259.705C210.344 256.536 209.484 253.036 209.484 249.2H209.084ZM211.71 259.898C213.46 262.993 215.816 265.484 218.777 267.369L218.992 267.031C216.086 265.182 213.776 262.74 212.058 259.702L211.71 259.898ZM218.786 267.374C221.884 269.125 225.319 270 229.084 270V269.6C225.383 269.6 222.018 268.741 218.983 267.026L218.786 267.374ZM229.084 270C234.868 270 239.655 268.047 243.428 264.139L243.141 263.861C239.448 267.686 234.767 269.6 229.084 269.6V270ZM243.431 264.136C247.201 260.097 249.084 255.113 249.084 249.2H248.684C248.684 255.02 246.834 259.903 243.138 263.864L243.431 264.136ZM249.084 249.2C249.084 243.287 247.201 238.369 243.428 234.461L243.141 234.739C246.834 238.565 248.684 243.38 248.684 249.2H249.084ZM243.428 234.461C239.655 230.553 234.868 228.6 229.084 228.6V229C234.767 229 239.448 230.914 243.141 234.739L243.428 234.461ZM229.084 228.6C223.301 228.6 218.514 230.553 214.74 234.461L215.028 234.739C218.721 230.914 223.401 229 229.084 229V228.6ZM214.74 234.461C210.968 238.369 209.084 243.287 209.084 249.2H209.484C209.484 243.38 211.334 238.565 215.028 234.739L214.74 234.461ZM420.138 215L419.997 215.142L419.998 215.143L420.138 215ZM418.538 292L418.671 292.149L418.672 292.148L418.538 292ZM340.938 298.6L340.836 298.772L340.837 298.773L340.938 298.6ZM318.938 275L318.759 275.09L318.76 275.091L318.938 275ZM372.138 155.2L372.092 155.005L372.092 155.005L372.138 155.2ZM416.338 144.8H416.538V144.547L416.292 144.605L416.338 144.8ZM416.338 184.4L416.383 184.595L416.538 184.558V184.4H416.338ZM372.138 194.8L372.092 194.605L372.09 194.606L372.138 194.8ZM355.338 202.2L355.221 202.037L355.219 202.039L355.338 202.2ZM346.338 213.4L346.149 213.333L345.895 214.049L346.469 213.551L346.338 213.4ZM388.138 265L388.279 265.141L388.281 265.139L388.138 265ZM388.138 237.6L387.994 237.739L387.996 237.741L388.138 237.6ZM364.737 234.6L364.833 234.776L364.839 234.772L364.737 234.6ZM357.938 241.4L357.762 241.304L357.762 241.304L357.938 241.4ZM360.938 265L360.794 265.139L360.796 265.141L360.938 265ZM381.938 200.4C397.357 200.4 410.038 205.317 419.997 215.142L420.278 214.858C410.237 204.95 397.451 200 381.938 200V200.4ZM419.998 215.143C430.09 224.97 435.138 237.383 435.138 252.4H435.538C435.538 237.283 430.452 224.764 420.277 214.857L419.998 215.143ZM435.138 252.4C435.138 268.615 429.558 281.759 418.403 291.852L418.672 292.148C429.917 281.974 435.538 268.718 435.538 252.4H435.138ZM418.404 291.851C407.248 301.811 392.566 306.8 374.338 306.8V307.2C392.642 307.2 407.427 302.189 418.671 292.149L418.404 291.851ZM374.338 306.8C361.701 306.8 350.604 304.007 341.038 298.427L340.837 298.773C350.471 304.393 361.64 307.2 374.338 307.2V306.8ZM341.039 298.428C331.606 292.848 324.299 285.01 319.115 274.909L318.76 275.091C323.976 285.257 331.335 293.152 340.836 298.772L341.039 298.428ZM319.116 274.91C313.932 264.675 311.338 252.841 311.338 239.4H310.938C310.938 252.893 313.543 264.791 318.759 275.09L319.116 274.91ZM311.338 239.4C311.338 216.161 316.415 197.557 326.549 183.567C336.682 169.58 351.887 160.186 372.183 155.395L372.092 155.005C351.722 159.814 336.426 169.253 326.226 183.333C316.027 197.41 310.938 216.105 310.938 239.4H311.338ZM372.183 155.395L416.383 144.995L416.292 144.605L372.092 155.005L372.183 155.395ZM416.138 144.8V184.4H416.538V144.8H416.138ZM416.292 184.205L372.092 194.605L372.183 194.995L416.383 184.595L416.292 184.205ZM372.09 194.606C365.536 196.211 359.912 198.687 355.221 202.037L355.454 202.363C360.096 199.046 365.672 196.589 372.185 194.994L372.09 194.606ZM355.219 202.039C350.663 205.389 347.632 209.153 346.149 213.333L346.526 213.467C347.976 209.381 350.946 205.677 355.456 202.361L355.219 202.039ZM346.469 213.551C356.565 204.783 368.385 200.4 381.938 200.4V200C368.29 200 356.377 204.417 346.206 213.249L346.469 213.551ZM374.538 270.6C380.053 270.6 384.638 268.782 388.279 265.141L387.996 264.859C384.437 268.418 379.955 270.2 374.538 270.2V270.6ZM388.281 265.139C391.92 261.366 393.738 256.715 393.738 251.2H393.338C393.338 256.618 391.555 261.167 387.994 264.861L388.281 265.139ZM393.738 251.2C393.738 245.685 391.919 241.099 388.279 237.459L387.996 237.741C391.556 241.301 393.338 245.782 393.338 251.2H393.738ZM388.281 237.461C384.642 233.686 380.055 231.8 374.538 231.8V232.2C379.953 232.2 384.433 234.047 387.994 237.739L388.281 237.461ZM374.538 231.8C370.904 231.8 367.602 232.675 364.636 234.428L364.839 234.772C367.74 233.058 370.971 232.2 374.538 232.2V231.8ZM364.642 234.424C361.675 236.043 359.38 238.337 357.762 241.304L358.113 241.496C359.695 238.596 361.934 236.357 364.833 234.776L364.642 234.424ZM357.762 241.304C356.145 244.269 355.338 247.569 355.338 251.2H355.738C355.738 247.631 356.53 244.397 358.113 241.496L357.762 241.304ZM355.338 251.2C355.338 256.715 357.155 261.366 360.794 265.139L361.081 264.861C357.52 261.167 355.738 256.618 355.738 251.2H355.338ZM360.796 265.141C364.437 268.782 369.022 270.6 374.538 270.6V270.2C369.12 270.2 364.638 268.418 361.079 264.859L360.796 265.141ZM557.936 291L558.07 291.148L558.071 291.147L557.936 291ZM466.736 291L466.6 291.147L466.601 291.148L466.736 291ZM466.736 207.2L466.87 207.348L466.871 207.347L466.736 207.2ZM557.936 207.2L557.8 207.347L557.801 207.348L557.936 207.2ZM498.736 263L498.592 263.139L498.595 263.141L498.736 263ZM525.736 263L525.594 262.859L525.592 262.861L525.736 263ZM525.736 235.2L525.589 235.336L525.595 235.341L525.736 235.2ZM498.736 235L498.594 234.859L498.592 234.861L498.736 235ZM557.801 290.852C546.111 301.479 530.962 306.8 512.336 306.8V307.2C531.043 307.2 546.294 301.854 558.07 291.148L557.801 290.852ZM512.336 306.8C493.71 306.8 478.561 301.479 466.87 290.852L466.601 291.148C478.378 301.854 493.629 307.2 512.336 307.2V306.8ZM466.871 290.853C455.183 280.094 449.336 266.149 449.336 249H448.936C448.936 266.251 454.823 280.306 466.6 291.147L466.871 290.853ZM449.336 249C449.336 231.851 455.183 217.973 466.87 207.348L466.601 207.052C454.823 217.76 448.936 231.749 448.936 249H449.336ZM466.871 207.347C478.562 196.587 493.71 191.2 512.336 191.2V190.8C493.628 190.8 478.377 196.213 466.6 207.053L466.871 207.347ZM512.336 191.2C530.962 191.2 546.11 196.587 557.8 207.347L558.071 207.053C546.295 196.213 531.044 190.8 512.336 190.8V191.2ZM557.801 207.348C569.489 217.973 575.336 231.851 575.336 249H575.736C575.736 231.749 569.849 217.76 558.07 207.052L557.801 207.348ZM575.336 249C575.336 266.149 569.489 280.094 557.8 290.853L558.071 291.147C569.849 280.306 575.736 266.251 575.736 249H575.336ZM498.595 263.141C502.235 266.782 506.821 268.6 512.336 268.6V268.2C506.918 268.2 502.437 266.418 498.877 262.859L498.595 263.141ZM512.336 268.6C517.851 268.6 522.372 266.782 525.88 263.139L525.592 262.861C522.167 266.418 517.754 268.2 512.336 268.2V268.6ZM525.877 263.141C529.52 259.499 531.336 254.779 531.336 249H530.936C530.936 254.688 529.152 259.301 525.595 262.859L525.877 263.141ZM531.336 249C531.336 243.353 529.519 238.7 525.877 235.059L525.595 235.341C529.153 238.9 530.936 243.447 530.936 249H531.336ZM525.882 235.064C522.375 231.287 517.854 229.4 512.336 229.4V229.8C517.752 229.8 522.164 231.647 525.589 235.336L525.882 235.064ZM512.336 229.4C506.821 229.4 502.235 231.218 498.595 234.859L498.877 235.141C502.437 231.582 506.918 229.8 512.336 229.8V229.4ZM498.592 234.861C495.084 238.504 493.336 243.223 493.336 249H493.736C493.736 243.31 495.455 238.696 498.88 235.139L498.592 234.861ZM493.336 249C493.336 254.777 495.084 259.496 498.592 263.139L498.88 262.861C495.455 259.304 493.736 254.69 493.736 249H493.336ZM697.363 195H697.563V194.8H697.363V195ZM697.363 232.2V232.4H697.563V232.2H697.363ZM663.763 232.2V232H663.563V232.2H663.763ZM663.763 303V303.2H663.963V303H663.763ZM619.763 303H619.563V303.2H619.763V303ZM619.763 232.2H619.963V232H619.763V232.2ZM585.963 232.2H585.763V232.4H585.963V232.2ZM585.963 195V194.8H585.763V195H585.963ZM697.163 195V232.2H697.563V195H697.163ZM697.363 232H663.763V232.4H697.363V232ZM663.563 232.2V303H663.963V232.2H663.563ZM663.763 302.8H619.763V303.2H663.763V302.8ZM619.963 303V232.2H619.563V303H619.963ZM619.763 232H585.963V232.4H619.763V232ZM586.163 232.2V195H585.763V232.2H586.163ZM585.963 195.2H697.363V194.8H585.963V195.2ZM800.416 195V194.8H800.299L800.242 194.901L800.416 195ZM834.016 195H834.216V194.8H834.016V195ZM834.016 303V303.2H834.216V303H834.016ZM799.616 303L799.44 303.096L799.497 303.2H799.616V303ZM796.016 296.4L796.191 296.304L796.078 296.097L795.893 296.242L796.016 296.4ZM723.616 291L723.472 291.14L723.616 291ZM723.616 207.4L723.758 207.541L723.759 207.54L723.616 207.4ZM796.216 202.4L796.09 202.555L796.273 202.704L796.39 202.499L796.216 202.4ZM755.416 259.8L755.24 259.895L755.242 259.898L755.416 259.8ZM762.416 267.2L762.308 267.369L762.317 267.374L762.416 267.2ZM786.816 264L786.96 264.139L786.962 264.136L786.816 264ZM786.816 234.6L786.96 234.461L786.96 234.461L786.816 234.6ZM758.416 234.6L758.56 234.739L758.56 234.739L758.416 234.6ZM800.416 195.2H834.016V194.8H800.416V195.2ZM833.816 195V303H834.216V195H833.816ZM834.016 302.8H799.616V303.2H834.016V302.8ZM799.791 302.904L796.191 296.304L795.84 296.496L799.44 303.096L799.791 302.904ZM795.893 296.242C786.863 303.28 776.373 306.8 764.416 306.8V307.2C776.458 307.2 787.035 303.653 796.139 296.558L795.893 296.242ZM764.416 306.8C747.662 306.8 734.116 301.483 723.759 290.86L723.472 291.14C733.915 301.85 747.569 307.2 764.416 307.2V306.8ZM723.759 290.86C713.401 280.237 708.216 266.29 708.216 249H707.816C707.816 266.376 713.03 280.43 723.472 291.14L723.759 290.86ZM708.216 249C708.216 231.843 713.401 218.03 723.758 207.541L723.473 207.259C713.03 217.836 707.816 231.757 707.816 249H708.216ZM723.759 207.54C734.116 196.917 747.662 191.6 764.416 191.6V191.2C747.569 191.2 733.915 196.55 723.472 207.26L723.759 207.54ZM764.416 191.6C776.505 191.6 787.06 195.252 796.09 202.555L796.341 202.244C787.238 194.881 776.593 191.2 764.416 191.2V191.6ZM796.39 202.499L800.59 195.099L800.242 194.901L796.042 202.301L796.39 202.499ZM752.616 249.2C752.616 253.098 753.49 256.664 755.24 259.895L755.591 259.705C753.875 256.536 753.016 253.036 753.016 249.2H752.616ZM755.242 259.898C756.991 262.993 759.347 265.484 762.308 267.369L762.523 267.031C759.618 265.182 757.307 262.74 755.59 259.702L755.242 259.898ZM762.317 267.374C765.416 269.125 768.85 270 772.616 270V269.6C768.915 269.6 765.549 268.741 762.514 267.026L762.317 267.374ZM772.616 270C778.399 270 783.186 268.047 786.96 264.139L786.672 263.861C782.979 267.686 778.299 269.6 772.616 269.6V270ZM786.962 264.136C790.732 260.097 792.616 255.113 792.616 249.2H792.216C792.216 255.02 790.366 259.903 786.669 263.864L786.962 264.136ZM792.616 249.2C792.616 243.287 790.732 238.369 786.96 234.461L786.672 234.739C790.366 238.565 792.216 243.38 792.216 249.2H792.616ZM786.96 234.461C783.186 230.553 778.399 228.6 772.616 228.6V229C778.299 229 782.979 230.914 786.672 234.739L786.96 234.461ZM772.616 228.6C766.832 228.6 762.045 230.553 758.272 234.461L758.56 234.739C762.252 230.914 766.933 229 772.616 229V228.6ZM758.272 234.461C754.499 238.369 752.616 243.287 752.616 249.2H753.016C753.016 243.38 754.866 238.565 758.56 234.739L758.272 234.461ZM1014.47 207.2L1014.33 207.347L1014.33 207.348L1014.47 207.2ZM1024.07 279.6L1024.24 279.703L1024.24 279.702L1024.07 279.6ZM1001.87 299.8L1001.78 299.621L1001.78 299.621L1001.87 299.8ZM943.069 302.2L942.988 302.383L942.992 302.385L943.069 302.2ZM923.869 288.2L923.718 288.331L923.869 288.2ZM912.669 267L912.861 266.946L912.821 266.8H912.669V267ZM903.669 267V266.8H903.469V267H903.669ZM903.669 303V303.2H903.869V303H903.669ZM858.869 303H858.669V303.2H858.869V303ZM858.869 195V194.8H858.669V195H858.869ZM903.669 195H903.869V194.8H903.669V195ZM903.669 231.8H903.469V232H903.669V231.8ZM912.469 231.8V232H912.622L912.662 231.852L912.469 231.8ZM932.469 202.4L932.586 202.562L932.587 202.561L932.469 202.4ZM955.069 263.2L954.922 263.336L954.927 263.341L955.069 263.2ZM982.069 263.2L981.925 263.061L981.925 263.061L982.069 263.2ZM982.069 235.4L981.922 235.536L981.927 235.541L982.069 235.4ZM958.869 232.4L958.968 232.574L958.971 232.572L958.869 232.4ZM952.269 239.2L952.093 239.104L952.093 239.104L952.269 239.2ZM968.669 191.6C987.697 191.6 1002.91 196.855 1014.33 207.347L1014.6 207.053C1003.09 196.478 987.774 191.2 968.669 191.2V191.6ZM1014.33 207.348C1025.89 217.839 1031.67 231.783 1031.67 249.2H1032.07C1032.07 231.684 1026.25 217.628 1014.6 207.052L1014.33 207.348ZM1031.67 249.2C1031.67 260.635 1029.08 270.733 1023.9 279.498L1024.24 279.702C1029.46 270.867 1032.07 260.698 1032.07 249.2H1031.67ZM1023.9 279.497C1018.72 288.129 1011.35 294.837 1001.78 299.621L1001.96 299.979C1011.59 295.163 1019.02 288.404 1024.24 279.703L1023.9 279.497ZM1001.78 299.621C992.211 304.405 981.176 306.8 968.669 306.8V307.2C981.228 307.2 992.326 304.795 1001.96 299.979L1001.78 299.621ZM968.669 306.8C959.359 306.8 950.852 305.204 943.145 302.015L942.992 302.385C950.753 305.596 959.312 307.2 968.669 307.2V306.8ZM943.149 302.017C935.575 298.695 929.2 294.046 924.02 288.069L923.718 288.331C928.938 294.354 935.363 299.038 942.988 302.383L943.149 302.017ZM924.02 288.069C918.84 282.093 915.121 275.053 912.861 266.946L912.476 267.054C914.75 275.214 918.497 282.307 923.718 288.331L924.02 288.069ZM912.669 266.8H903.669V267.2H912.669V266.8ZM903.469 267V303H903.869V267H903.469ZM903.669 302.8H858.869V303.2H903.669V302.8ZM859.069 303V195H858.669V303H859.069ZM858.869 195.2H903.669V194.8H858.869V195.2ZM903.469 195V231.8H903.869V195H903.469ZM903.669 232H912.469V231.6H903.669V232ZM912.662 231.852C915.984 219.494 922.625 209.734 932.586 202.562L932.352 202.238C922.313 209.466 915.62 219.306 912.276 231.748L912.662 231.852ZM932.587 202.561C942.548 195.257 954.572 191.6 968.669 191.6V191.2C954.499 191.2 942.389 194.877 932.35 202.239L932.587 202.561ZM954.927 263.341C958.568 266.982 963.153 268.8 968.669 268.8V268.4C963.251 268.4 958.77 266.618 955.21 263.059L954.927 263.341ZM968.669 268.8C974.184 268.8 978.705 266.982 982.213 263.339L981.925 263.061C978.499 266.618 974.087 268.4 968.669 268.4V268.8ZM982.213 263.339C985.852 259.565 987.669 254.847 987.669 249.2H987.269C987.269 254.753 985.486 259.368 981.925 263.061L982.213 263.339ZM987.669 249.2C987.669 243.553 985.852 238.9 982.21 235.259L981.927 235.541C985.486 239.1 987.269 243.647 987.269 249.2H987.669ZM982.215 235.264C978.708 231.487 974.186 229.6 968.669 229.6V230C974.084 230 978.496 231.847 981.922 235.536L982.215 235.264ZM968.669 229.6C965.035 229.6 961.733 230.475 958.767 232.228L958.971 232.572C961.871 230.858 965.102 230 968.669 230V229.6ZM958.77 232.226C955.936 233.845 953.71 236.14 952.093 239.104L952.444 239.296C954.027 236.394 956.201 234.155 958.968 232.574L958.77 232.226ZM952.093 239.104C950.475 242.07 949.669 245.437 949.669 249.2H950.069C950.069 245.496 950.862 242.196 952.444 239.296L952.093 239.104ZM949.669 249.2C949.669 254.845 951.418 259.562 954.922 263.336L955.215 263.064C951.787 259.371 950.069 254.755 950.069 249.2H949.669Z" fill="black"/>
</svg>
