<svg width="870" height="330" viewBox="0 0 870 330" fill="none" xmlns="http://www.w3.org/2000/svg">
<path d="M222.947 30V29.8H222.747V30H222.947ZM267.747 30H267.947V29.8H267.747V30ZM267.747 138V138.2H267.947V138H267.747ZM222.947 138H222.747V138.2H222.947V138ZM222.947 107.8H223.147V107.552L222.904 107.605L222.947 107.8ZM172.347 97.2L172.203 97.3391L172.204 97.3403L172.347 97.2ZM160.147 30V29.8H159.947V30H160.147ZM204.947 30H205.147V29.8H204.947V30ZM222.947 73L222.993 73.1946L223.147 73.158V73H222.947ZM222.947 30.2H267.747V29.8H222.947V30.2ZM267.547 30V138H267.947V30H267.547ZM267.747 137.8H222.947V138.2H267.747V137.8ZM223.147 138V107.8H222.747V138H223.147ZM222.904 107.605C216.783 108.935 210.997 109.6 205.547 109.6V110C211.03 110 216.844 109.331 222.989 107.995L222.904 107.605ZM205.547 109.6C191.724 109.6 180.712 105.415 172.489 97.0597L172.204 97.3403C180.515 105.785 191.637 110 205.547 110V109.6ZM172.491 97.0609C164.403 88.7084 160.347 76.9642 160.347 61.8H159.947C159.947 77.0358 164.024 88.8916 172.203 97.3391L172.491 97.0609ZM160.347 61.8V30H159.947V61.8H160.347ZM160.147 30.2H204.947V29.8H160.147V30.2ZM204.747 30V61.4H205.147V30H204.747ZM204.747 61.4C204.747 65.6232 205.634 68.8279 207.444 70.9787C209.259 73.1362 211.973 74.2 215.547 74.2V73.8C212.054 73.8 209.468 72.7637 207.75 70.7212C206.026 68.6721 205.147 65.5768 205.147 61.4H204.747ZM215.547 74.2C217.7 74.2 220.183 73.8637 222.993 73.1946L222.901 72.8054C220.111 73.4697 217.66 73.8 215.547 73.8V74.2ZM223.147 73V30H222.747V73H223.147ZM397.027 30H397.227V29.8H397.027V30ZM397.027 67.2V67.4H397.227V67.2H397.027ZM363.427 67.2V67H363.227V67.2H363.427ZM363.427 138V138.2H363.627V138H363.427ZM319.427 138H319.227V138.2H319.427V138ZM319.427 67.2H319.627V67H319.427V67.2ZM285.627 67.2H285.427V67.4H285.627V67.2ZM285.627 30V29.8H285.427V30H285.627ZM396.827 30V67.2H397.227V30H396.827ZM397.027 67H363.427V67.4H397.027V67ZM363.227 67.2V138H363.627V67.2H363.227ZM363.427 137.8H319.427V138.2H363.427V137.8ZM319.627 138V67.2H319.227V138H319.627ZM319.427 67H285.627V67.4H319.427V67ZM285.827 67.2V30H285.427V67.2H285.827ZM285.627 30.2H397.027V29.8H285.627V30.2ZM516.28 126L516.414 126.148L516.415 126.147L516.28 126ZM425.08 126L424.944 126.147L424.945 126.148L425.08 126ZM425.08 42.2L425.214 42.348L425.215 42.3471L425.08 42.2ZM516.28 42.2L516.144 42.3471L516.145 42.348L516.28 42.2ZM457.08 98L456.936 98.1388L456.938 98.1414L457.08 98ZM484.08 98L483.938 97.8586L483.936 97.8613L484.08 98ZM484.08 70.2L483.933 70.3362L483.938 70.3414L484.08 70.2ZM457.08 70L456.938 69.8586L456.936 69.8613L457.08 70ZM516.145 125.852C504.455 136.479 489.306 141.8 470.68 141.8V142.2C489.387 142.2 504.638 136.854 516.414 126.148L516.145 125.852ZM470.68 141.8C452.053 141.8 436.904 136.479 425.214 125.852L424.945 126.148C436.722 136.854 451.973 142.2 470.68 142.2V141.8ZM425.215 125.853C413.526 115.094 407.68 101.149 407.68 84H407.28C407.28 101.251 413.166 115.306 424.944 126.147L425.215 125.853ZM407.68 84C407.68 66.851 413.526 52.9733 425.214 42.348L424.945 42.052C413.166 52.76 407.28 66.749 407.28 84H407.68ZM425.215 42.3471C436.905 31.5868 452.054 26.2 470.68 26.2V25.8C451.972 25.8 436.721 31.2132 424.944 42.0528L425.215 42.3471ZM470.68 26.2C489.305 26.2 504.454 31.5868 516.144 42.3471L516.415 42.0528C504.639 31.2132 489.387 25.8 470.68 25.8V26.2ZM516.145 42.348C527.833 52.9733 533.68 66.851 533.68 84H534.08C534.08 66.749 528.193 52.76 516.414 42.052L516.145 42.348ZM533.68 84C533.68 101.149 527.833 115.094 516.144 125.853L516.415 126.147C528.193 115.306 534.08 101.251 534.08 84H533.68ZM456.938 98.1414C460.579 101.782 465.164 103.6 470.68 103.6V103.2C465.262 103.2 460.781 101.418 457.221 97.8586L456.938 98.1414ZM470.68 103.6C476.195 103.6 480.716 101.782 484.224 98.1387L483.936 97.8613C480.51 101.418 476.098 103.2 470.68 103.2V103.6ZM484.221 98.1414C487.863 94.499 489.68 89.7791 489.68 84H489.28C489.28 89.6876 487.496 94.3009 483.938 97.8586L484.221 98.1414ZM489.68 84C489.68 78.3528 487.863 73.7 484.221 70.0586L483.938 70.3414C487.497 73.9 489.28 78.4472 489.28 84H489.68ZM484.226 70.0639C480.719 66.2866 476.197 64.4 470.68 64.4V64.8C476.095 64.8 480.507 66.6467 483.933 70.3361L484.226 70.0639ZM470.68 64.4C465.164 64.4 460.579 66.2181 456.938 69.8586L457.221 70.1414C460.781 66.5819 465.262 64.8 470.68 64.8V64.4ZM456.936 69.8613C453.428 73.5041 451.68 78.2231 451.68 84H452.08C452.08 78.3102 453.798 73.6959 457.224 70.1387L456.936 69.8613ZM451.68 84C451.68 89.7769 453.428 94.4959 456.936 98.1387L457.224 97.8613C453.798 94.3041 452.08 89.6898 452.08 84H451.68ZM699.131 30H699.331V29.8H699.131V30ZM699.131 138V138.2H699.331V138H699.131ZM659.131 138H658.931V138.2H659.131V138ZM659.131 105.8H659.331V105.6H659.131V105.8ZM651.731 105.8V105.6H651.601L651.548 105.719L651.731 105.8ZM637.531 138V138.2H637.662L637.714 138.081L637.531 138ZM590.131 138L589.959 137.899L589.783 138.2H590.131V138ZM613.131 98.6L613.304 98.7008L613.413 98.514L613.218 98.4199L613.131 98.6ZM603.131 91.2L603.279 91.0651L603.279 91.0651L603.131 91.2ZM596.531 80.4L596.343 80.4669L596.345 80.4722L596.531 80.4ZM604.931 40.4L605.07 40.5441L605.071 40.5428L604.931 40.4ZM659.131 78.4V78.6H659.331V78.4H659.131ZM659.131 58.4H659.331V58.2H659.131V58.4ZM640.131 61.2L640.273 61.3414L640.273 61.3414L640.131 61.2ZM640.131 75.8L639.985 75.9361L639.99 75.9415L639.995 75.9466L640.131 75.8ZM632.731 30.2H699.131V29.8H632.731V30.2ZM698.931 30V138H699.331V30H698.931ZM699.131 137.8H659.131V138.2H699.131V137.8ZM659.331 138V105.8H658.931V138H659.331ZM659.131 105.6H651.731V106H659.131V105.6ZM651.548 105.719L637.348 137.919L637.714 138.081L651.914 105.881L651.548 105.719ZM637.531 137.8H590.131V138.2H637.531V137.8ZM590.304 138.101L613.304 98.7008L612.959 98.4992L589.959 137.899L590.304 138.101ZM613.218 98.4199C609.374 96.5639 606.061 94.1124 603.279 91.0651L602.984 91.3349C605.801 94.421 609.155 96.9027 613.044 98.7801L613.218 98.4199ZM603.279 91.0651C600.497 88.018 598.309 84.4396 596.718 80.3278L596.345 80.4722C597.953 84.6271 600.166 88.2487 602.984 91.3349L603.279 91.0651ZM596.72 80.3331C595.261 76.2226 594.531 71.8453 594.531 67.2H594.131C594.131 71.888 594.868 76.3107 596.343 80.4669L596.72 80.3331ZM594.531 67.2C594.531 56.18 598.048 47.3014 605.07 40.5441L604.793 40.2559C597.682 47.0986 594.131 56.0866 594.131 67.2H594.531ZM605.071 40.5428C612.095 33.6519 621.308 30.2 632.731 30.2V29.8C621.221 29.8 611.901 33.2814 604.791 40.2572L605.071 40.5428ZM647.931 78.6H659.131V78.2H647.931V78.6ZM659.331 78.4V58.4H658.931V78.4H659.331ZM659.131 58.2H647.931V58.6H659.131V58.2ZM647.931 58.2C644.56 58.2 641.903 59.1452 639.99 61.0586L640.273 61.3414C642.093 59.5215 644.636 58.6 647.931 58.6V58.2ZM639.99 61.0586C638.21 62.8383 637.331 65.2943 637.331 68.4H637.731C637.731 65.3723 638.586 63.0284 640.273 61.3414L639.99 61.0586ZM637.331 68.4C637.331 71.5063 638.21 74.0252 639.985 75.9361L640.278 75.6639C638.586 73.8415 637.731 71.4271 637.731 68.4H637.331ZM639.995 75.9466C641.909 77.7238 644.563 78.6 647.931 78.6V78.2C644.632 78.2 642.087 77.3429 640.267 75.6534L639.995 75.9466ZM22.8406 291.2L22.7044 291.346L22.7053 291.347L22.8406 291.2ZM22.8406 207.4L22.9759 207.547L22.9768 207.546L22.8406 207.4ZM109.241 205.6L109.11 205.751L109.111 205.752L109.241 205.6ZM127.641 242.6V242.8H127.859L127.84 242.583L127.641 242.6ZM84.8406 242.6L84.644 242.636L84.6743 242.8H84.8406V242.6ZM79.0406 233.6L78.9164 233.757L78.9206 233.76L79.0406 233.6ZM54.8406 235L54.6964 234.861L54.6937 234.864L54.8406 235ZM54.8406 263.4L54.6936 263.536L54.6965 263.539L54.8406 263.4ZM79.2406 264.6L79.1157 264.444L79.1126 264.446L79.2406 264.6ZM85.0406 254.8V254.6H84.8663L84.8425 254.773L85.0406 254.8ZM128.041 254.8L128.239 254.822L128.264 254.6H128.041V254.8ZM108.841 292.8L108.972 292.951L108.972 292.951L108.841 292.8ZM68.0406 306.8C49.4135 306.8 34.3986 301.546 22.9759 291.053L22.7053 291.347C34.216 301.921 49.3344 307.2 68.0406 307.2V306.8ZM22.9768 291.054C11.5554 280.429 5.84063 266.484 5.84063 249.2H5.44063C5.44063 266.582 11.1925 280.638 22.7044 291.346L22.9768 291.054ZM5.84063 249.2C5.84063 231.916 11.5554 218.038 22.9759 207.547L22.7053 207.253C11.1925 217.828 5.44063 231.818 5.44063 249.2H5.84063ZM22.9768 207.546C34.3996 196.921 49.4142 191.6 68.0406 191.6V191.2C49.3337 191.2 34.215 196.546 22.7044 207.254L22.9768 207.546ZM68.0406 191.6C84.5332 191.6 98.2179 196.32 109.11 205.751L109.372 205.449C98.3967 195.946 84.6147 191.2 68.0406 191.2V191.6ZM109.111 205.752C120.001 215.049 126.112 227.332 127.441 242.617L127.84 242.583C126.502 227.201 120.347 214.818 109.37 205.448L109.111 205.752ZM127.641 242.4H84.8406V242.8H127.641V242.4ZM85.0373 242.564C84.3606 238.909 82.3967 235.867 79.1606 233.44L78.9206 233.76C82.0845 236.133 83.9873 239.091 84.644 242.636L85.0373 242.564ZM79.1648 233.443C75.929 230.881 72.2184 229.6 68.0406 229.6V230C72.1295 230 75.7523 231.252 78.9165 233.757L79.1648 233.443ZM68.0406 229.6C62.5277 229.6 58.0728 231.35 54.6965 234.861L54.9848 235.139C58.2751 231.717 62.6202 230 68.0406 230V229.6ZM54.6937 234.864C51.451 238.377 49.8406 243.164 49.8406 249.2H50.2406C50.2406 243.236 51.8302 238.556 54.9876 235.136L54.6937 234.864ZM49.8406 249.2C49.8406 255.236 51.451 260.023 54.6937 263.536L54.9876 263.264C51.8302 259.844 50.2406 255.164 50.2406 249.2H49.8406ZM54.6965 263.539C58.0728 267.05 62.5277 268.8 68.0406 268.8V268.4C62.6202 268.4 58.2751 266.683 54.9848 263.261L54.6965 263.539ZM68.0406 268.8C72.3528 268.8 76.1318 267.451 79.3687 264.754L79.1126 264.446C75.9495 267.082 72.2617 268.4 68.0406 268.4V268.8ZM79.3656 264.756C82.7348 262.061 84.6977 258.75 85.2388 254.827L84.8425 254.773C84.3169 258.584 82.4131 261.806 79.1157 264.444L79.3656 264.756ZM85.0406 255H128.041V254.6H85.0406V255ZM127.842 254.778C126.114 270.466 119.735 283.085 108.71 292.649L108.972 292.951C120.08 283.315 126.501 270.601 128.239 254.822L127.842 254.778ZM108.71 292.649C97.8173 302.08 84.2656 306.8 68.0406 306.8V307.2C84.349 307.2 97.9973 302.453 108.972 292.951L108.71 292.649ZM250.123 291L250.258 291.148L250.259 291.147L250.123 291ZM158.923 291L158.788 291.147L158.789 291.148L158.923 291ZM158.923 207.2L159.058 207.348L159.059 207.347L158.923 207.2ZM250.123 207.2L249.988 207.347L249.989 207.348L250.123 207.2ZM190.923 263L190.779 263.139L190.782 263.141L190.923 263ZM217.923 263L217.782 262.859L217.779 262.861L217.923 263ZM217.923 235.2L217.777 235.336L217.782 235.341L217.923 235.2ZM190.923 235L190.782 234.859L190.779 234.861L190.923 235ZM249.989 290.852C238.299 301.479 223.15 306.8 204.523 306.8V307.2C223.231 307.2 238.481 301.854 250.258 291.148L249.989 290.852ZM204.523 306.8C185.897 306.8 170.748 301.479 159.058 290.852L158.789 291.148C170.565 301.854 185.816 307.2 204.523 307.2V306.8ZM159.059 290.853C147.37 280.094 141.523 266.149 141.523 249H141.123C141.123 266.251 147.01 280.306 158.788 291.147L159.059 290.853ZM141.523 249C141.523 231.851 147.37 217.973 159.058 207.348L158.789 207.052C147.01 217.76 141.123 231.749 141.123 249H141.523ZM159.059 207.347C170.749 196.587 185.898 191.2 204.523 191.2V190.8C185.816 190.8 170.564 196.213 158.788 207.053L159.059 207.347ZM204.523 191.2C223.149 191.2 238.298 196.587 249.988 207.347L250.259 207.053C238.482 196.213 223.231 190.8 204.523 190.8V191.2ZM249.989 207.348C261.677 217.973 267.523 231.851 267.523 249H267.923C267.923 231.749 262.037 217.76 250.258 207.052L249.989 207.348ZM267.523 249C267.523 266.149 261.677 280.094 249.988 290.853L250.259 291.147C262.037 280.306 267.923 266.251 267.923 249H267.523ZM190.782 263.141C194.422 266.782 199.008 268.6 204.523 268.6V268.2C199.105 268.2 194.624 266.418 191.065 262.859L190.782 263.141ZM204.523 268.6C210.039 268.6 214.559 266.782 218.068 263.139L217.779 262.861C214.354 266.418 209.941 268.2 204.523 268.2V268.6ZM218.065 263.141C221.707 259.499 223.523 254.779 223.523 249H223.123C223.123 254.688 221.34 259.301 217.782 262.859L218.065 263.141ZM223.523 249C223.523 243.353 221.706 238.7 218.065 235.059L217.782 235.341C221.341 238.9 223.123 243.447 223.123 249H223.523ZM218.07 235.064C214.563 231.287 210.041 229.4 204.523 229.4V229.8C209.939 229.8 214.351 231.647 217.777 235.336L218.07 235.064ZM204.523 229.4C199.008 229.4 194.422 231.218 190.782 234.859L191.065 235.141C194.624 231.582 199.105 229.8 204.523 229.8V229.4ZM190.779 234.861C187.272 238.504 185.523 243.223 185.523 249H185.923C185.923 243.31 187.642 238.696 191.068 235.139L190.779 234.861ZM185.523 249C185.523 254.777 187.272 259.496 190.779 263.139L191.068 262.861C187.642 259.304 185.923 254.69 185.923 249H185.523ZM364.708 246.4L364.611 246.225L364.25 246.425L364.631 246.584L364.708 246.4ZM378.108 257.2L378.274 257.089L378.274 257.089L378.108 257.2ZM375.308 291.8L375.163 291.662L375.308 291.8ZM356.308 303.4L356.248 303.209L356.247 303.21L356.308 303.4ZM294.708 297.2L294.596 297.366L294.597 297.367L294.708 297.2ZM278.908 268.4V268.2H278.697L278.708 268.411L278.908 268.4ZM321.108 268.4L321.307 268.378L321.287 268.2H321.108V268.4ZM324.108 274.2L323.979 274.353L323.984 274.357L324.108 274.2ZM336.908 274L336.766 273.858L336.76 273.865L336.908 274ZM338.708 265.4L338.514 265.449L338.518 265.464L338.524 265.479L338.708 265.4ZM337.108 262.6L336.945 262.716L336.955 262.73L336.966 262.741L337.108 262.6ZM334.308 260.6L334.227 260.783L334.235 260.787L334.245 260.79L334.308 260.6ZM317.108 259.8H316.908V260H317.108V259.8ZM317.108 235.2V235H316.908V235.2H317.108ZM336.708 233L336.566 232.859L336.566 232.859L336.708 233ZM336.908 222.4L336.766 222.542L336.773 222.548L336.908 222.4ZM321.308 226.6V226.8H321.455L321.499 226.66L321.308 226.6ZM280.908 226.6L280.709 226.583L280.69 226.8H280.908V226.6ZM289.308 206.6L289.161 206.464L289.159 206.466L289.308 206.6ZM307.708 194.8L307.771 194.99L307.774 194.989L307.708 194.8ZM354.708 194.8L354.641 194.989L354.645 194.99L354.708 194.8ZM372.508 206L372.361 206.136L372.363 206.138L372.508 206ZM375.708 236.4L375.54 236.292L375.539 236.293L375.708 236.4ZM364.631 246.584C370.331 248.971 374.765 252.546 377.941 257.311L378.274 257.089C375.051 252.254 370.552 248.629 364.785 246.216L364.631 246.584ZM377.941 257.311C381.12 262.079 382.708 267.241 382.708 272.8H383.108C383.108 267.159 381.495 261.921 378.274 257.089L377.941 257.311ZM382.708 272.8C382.708 280.082 380.194 286.366 375.163 291.662L375.453 291.938C380.555 286.567 383.108 280.185 383.108 272.8H382.708ZM375.163 291.662C370.121 296.969 363.818 300.819 356.248 303.209L356.368 303.591C363.998 301.181 370.361 297.298 375.453 291.938L375.163 291.662ZM356.247 303.21C348.802 305.603 340.69 306.8 331.908 306.8V307.2C340.726 307.2 348.88 305.997 356.369 303.59L356.247 303.21ZM331.908 306.8C317.003 306.8 304.645 303.54 294.818 297.033L294.597 297.367C304.504 303.927 316.945 307.2 331.908 307.2V306.8ZM294.82 297.034C285.008 290.405 279.771 280.864 279.108 268.389L278.708 268.411C279.378 281.003 284.674 290.662 294.596 297.366L294.82 297.034ZM278.908 268.6H321.108V268.2H278.908V268.6ZM320.909 268.422C321.181 270.869 322.204 272.851 323.979 274.353L324.237 274.047C322.545 272.616 321.568 270.731 321.307 268.378L320.909 268.422ZM323.984 274.357C325.887 275.852 328.064 276.6 330.508 276.6V276.2C328.152 276.2 326.062 275.481 324.231 274.043L323.984 274.357ZM330.508 276.6C333.347 276.6 335.54 275.788 337.055 274.135L336.76 273.865C335.342 275.412 333.269 276.2 330.508 276.2V276.6ZM337.049 274.141C338.684 272.506 339.508 270.59 339.508 268.4H339.108C339.108 270.477 338.331 272.294 336.766 273.859L337.049 274.141ZM339.508 268.4C339.508 267.308 339.303 266.281 338.892 265.321L338.524 265.479C338.913 266.386 339.108 267.359 339.108 268.4H339.508ZM338.902 265.351C338.626 264.249 338.074 263.283 337.249 262.459L336.966 262.741C337.742 263.517 338.256 264.418 338.514 265.449L338.902 265.351ZM337.271 262.484C336.577 261.512 335.607 260.822 334.371 260.41L334.245 260.79C335.409 261.178 336.305 261.821 336.945 262.716L337.271 262.484ZM334.389 260.417C333.159 259.87 331.73 259.6 330.108 259.6V260C331.686 260 333.057 260.263 334.227 260.783L334.389 260.417ZM330.108 259.6H317.108V260H330.108V259.6ZM317.308 259.8V235.2H316.908V259.8H317.308ZM317.108 235.4H330.108V235H317.108V235.4ZM330.108 235.4C333.072 235.4 335.332 234.659 336.849 233.141L336.566 232.859C335.15 234.275 333.01 235 330.108 235V235.4ZM336.849 233.141C338.484 231.506 339.308 229.59 339.308 227.4H338.908C338.908 229.477 338.131 231.294 336.566 232.859L336.849 233.141ZM339.308 227.4C339.308 225.344 338.551 223.624 337.042 222.252L336.773 222.548C338.198 223.843 338.908 225.456 338.908 227.4H339.308ZM337.049 222.259C335.533 220.743 333.342 220 330.508 220V220.4C333.274 220.4 335.349 221.124 336.766 222.541L337.049 222.259ZM330.508 220C328.079 220 326.069 220.54 324.494 221.636C322.917 222.733 321.794 224.373 321.117 226.54L321.499 226.66C322.155 224.56 323.232 223.001 324.722 221.964C326.213 220.927 328.137 220.4 330.508 220.4V220ZM321.308 226.4H280.908V226.8H321.308V226.4ZM281.107 226.617C281.77 218.79 284.554 212.166 289.456 206.734L289.159 206.466C284.195 211.968 281.379 218.676 280.709 226.583L281.107 226.617ZM289.454 206.736C294.498 201.294 300.602 197.379 307.771 194.99L307.645 194.61C300.413 197.021 294.251 200.972 289.161 206.464L289.454 206.736ZM307.774 194.989C314.95 192.464 322.861 191.2 331.508 191.2V190.8C322.822 190.8 314.865 192.07 307.641 194.611L307.774 194.989ZM331.508 191.2C339.754 191.2 347.464 192.463 354.641 194.989L354.774 194.611C347.551 192.07 339.795 190.8 331.508 190.8V191.2ZM354.645 194.99C361.816 197.38 367.719 201.096 372.361 206.135L372.655 205.865C367.963 200.77 362 197.02 354.771 194.61L354.645 194.99ZM372.363 206.138C377.13 211.17 379.508 216.922 379.508 223.4H379.908C379.908 216.812 377.486 210.963 372.653 205.862L372.363 206.138ZM379.508 223.4C379.508 227.892 378.187 232.188 375.54 236.292L375.876 236.508C378.562 232.346 379.908 227.975 379.908 223.4H379.508ZM375.539 236.293C373.026 240.261 369.386 243.572 364.611 246.225L364.805 246.575C369.629 243.895 373.323 240.539 375.877 236.507L375.539 236.293ZM512.888 265.8H512.688V266H512.888V265.8ZM527.288 265.8H527.488V265.6H527.288V265.8ZM527.288 330V330.2H527.488V330H527.288ZM490.888 330H490.688V330.2H490.888V330ZM490.888 303H491.088V302.8H490.888V303ZM431.488 303V302.8H431.288V303H431.488ZM431.488 330V330.2H431.688V330H431.488ZM395.088 330H394.888V330.2H395.088V330ZM395.088 265.8V265.6H394.888V265.8H395.088ZM407.688 265.8V266H407.791L407.851 265.916L407.688 265.8ZM414.488 244.6L414.29 244.566L414.29 244.568L414.488 244.6ZM420.088 195V194.8H419.904L419.888 194.983L420.088 195ZM512.888 195H513.088V194.8H512.888V195ZM456.488 230.6V230.4H456.305L456.288 230.582L456.488 230.6ZM449.288 265.8L449.107 265.715L448.972 266H449.288V265.8ZM473.488 265.8V266H473.688V265.8H473.488ZM473.488 230.6H473.688V230.4H473.488V230.6ZM512.888 266H527.288V265.6H512.888V266ZM527.088 265.8V330H527.488V265.8H527.088ZM527.288 329.8H490.888V330.2H527.288V329.8ZM491.088 330V303H490.688V330H491.088ZM490.888 302.8H431.488V303.2H490.888V302.8ZM431.288 303V330H431.688V303H431.288ZM431.488 329.8H395.088V330.2H431.488V329.8ZM395.288 330V265.8H394.888V330H395.288ZM395.088 266H407.688V265.6H395.088V266ZM407.851 265.916C410.812 261.743 413.084 254.637 414.685 244.632L414.29 244.568C412.691 254.563 410.43 261.59 407.524 265.684L407.851 265.916ZM414.685 244.634C416.419 234.492 418.287 217.951 420.287 195.017L419.888 194.983C417.888 217.915 416.022 234.442 414.29 244.566L414.685 244.634ZM420.088 195.2H512.888V194.8H420.088V195.2ZM512.688 195V265.8H513.088V195H512.688ZM456.288 230.582C454.822 246.979 452.424 258.682 449.107 265.715L449.468 265.885C452.818 258.785 455.22 247.021 456.687 230.618L456.288 230.582ZM449.288 266H473.488V265.6H449.288V266ZM473.688 265.8V230.6H473.288V265.8H473.688ZM473.488 230.4H456.488V230.8H473.488V230.4ZM633.173 195V194.8H633.057L633 194.901L633.173 195ZM666.773 195H666.973V194.8H666.773V195ZM666.773 303V303.2H666.973V303H666.773ZM632.373 303L632.198 303.096L632.255 303.2H632.373V303ZM628.773 296.4L628.949 296.304L628.836 296.097L628.65 296.242L628.773 296.4ZM556.373 291L556.23 291.14L556.373 291ZM556.373 207.4L556.516 207.541L556.517 207.54L556.373 207.4ZM628.973 202.4L628.848 202.555L629.031 202.704L629.147 202.499L628.973 202.4ZM588.173 259.8L587.998 259.895L587.999 259.898L588.173 259.8ZM595.173 267.2L595.066 267.369L595.075 267.374L595.173 267.2ZM619.573 264L619.717 264.139L619.72 264.136L619.573 264ZM619.573 234.6L619.717 234.461L619.717 234.461L619.573 234.6ZM591.173 234.6L591.317 234.739L591.317 234.739L591.173 234.6ZM633.173 195.2H666.773V194.8H633.173V195.2ZM666.573 195V303H666.973V195H666.573ZM666.773 302.8H632.373V303.2H666.773V302.8ZM632.549 302.904L628.949 296.304L628.598 296.496L632.198 303.096L632.549 302.904ZM628.65 296.242C619.621 303.28 609.131 306.8 597.173 306.8V307.2C609.216 307.2 619.793 303.653 628.896 296.558L628.65 296.242ZM597.173 306.8C580.42 306.8 566.874 301.483 556.517 290.86L556.23 291.14C566.673 301.85 580.327 307.2 597.173 307.2V306.8ZM556.517 290.86C546.159 280.237 540.973 266.29 540.973 249H540.573C540.573 266.376 545.788 280.43 556.23 291.14L556.517 290.86ZM540.973 249C540.973 231.843 546.159 218.03 556.516 207.541L556.231 207.259C545.788 217.836 540.573 231.757 540.573 249H540.973ZM556.517 207.54C566.874 196.917 580.42 191.6 597.173 191.6V191.2C580.327 191.2 566.673 196.55 556.23 207.26L556.517 207.54ZM597.173 191.6C609.263 191.6 619.818 195.252 628.848 202.555L629.099 202.244C619.995 194.881 609.351 191.2 597.173 191.2V191.6ZM629.147 202.499L633.347 195.099L633 194.901L628.8 202.301L629.147 202.499ZM585.373 249.2C585.373 253.098 586.247 256.664 587.998 259.895L588.349 259.705C586.633 256.536 585.773 253.036 585.773 249.2H585.373ZM587.999 259.898C589.749 262.993 592.105 265.484 595.066 267.369L595.281 267.031C592.376 265.182 590.065 262.74 588.348 259.702L587.999 259.898ZM595.075 267.374C598.174 269.125 601.608 270 605.373 270V269.6C601.672 269.6 598.307 268.741 595.272 267.026L595.075 267.374ZM605.373 270C611.157 270 615.944 268.047 619.717 264.139L619.43 263.861C615.737 267.686 611.057 269.6 605.373 269.6V270ZM619.72 264.136C623.49 260.097 625.373 255.113 625.373 249.2H624.973C624.973 255.02 623.123 259.903 619.427 263.864L619.72 264.136ZM625.373 249.2C625.373 243.287 623.49 238.369 619.717 234.461L619.43 234.739C623.123 238.565 624.973 243.38 624.973 249.2H625.373ZM619.717 234.461C615.944 230.553 611.157 228.6 605.373 228.6V229C611.057 229 615.737 230.914 619.43 234.739L619.717 234.461ZM605.373 228.6C599.59 228.6 594.803 230.553 591.03 234.461L591.317 234.739C595.01 230.914 599.69 229 605.373 229V228.6ZM591.03 234.461C587.257 238.369 585.373 243.287 585.373 249.2H585.773C585.773 243.38 587.623 238.565 591.317 234.739L591.03 234.461ZM847.227 207.2L847.091 207.347L847.092 207.348L847.227 207.2ZM856.827 279.6L856.998 279.703L856.999 279.702L856.827 279.6ZM834.627 299.8L834.537 299.621L834.537 299.621L834.627 299.8ZM775.827 302.2L775.746 302.383L775.75 302.385L775.827 302.2ZM756.627 288.2L756.475 288.331L756.627 288.2ZM745.427 267L745.619 266.946L745.578 266.8H745.427V267ZM736.427 267V266.8H736.227V267H736.427ZM736.427 303V303.2H736.627V303H736.427ZM691.627 303H691.427V303.2H691.627V303ZM691.627 195V194.8H691.427V195H691.627ZM736.427 195H736.627V194.8H736.427V195ZM736.427 231.8H736.227V232H736.427V231.8ZM745.227 231.8V232H745.38L745.42 231.852L745.227 231.8ZM765.227 202.4L765.343 202.562L765.345 202.561L765.227 202.4ZM787.827 263.2L787.68 263.336L787.685 263.341L787.827 263.2ZM814.827 263.2L814.683 263.061L814.683 263.061L814.827 263.2ZM814.827 235.4L814.68 235.536L814.685 235.541L814.827 235.4ZM791.627 232.4L791.726 232.574L791.728 232.572L791.627 232.4ZM785.027 239.2L784.851 239.104L784.851 239.104L785.027 239.2ZM801.427 191.6C820.455 191.6 835.669 196.855 847.091 207.347L847.362 207.053C835.85 196.478 820.532 191.2 801.427 191.2V191.6ZM847.092 207.348C858.645 217.839 864.427 231.783 864.427 249.2H864.827C864.827 231.684 859.008 217.628 847.361 207.052L847.092 207.348ZM864.427 249.2C864.427 260.635 861.834 270.733 856.654 279.498L856.999 279.702C862.219 270.867 864.827 260.698 864.827 249.2H864.427ZM856.655 279.497C851.476 288.129 844.105 294.837 834.537 299.621L834.716 299.979C844.348 295.163 851.777 288.404 856.998 279.703L856.655 279.497ZM834.537 299.621C824.969 304.405 813.934 306.8 801.427 306.8V307.2C813.986 307.2 825.084 304.795 834.716 299.979L834.537 299.621ZM801.427 306.8C792.116 306.8 783.609 305.204 775.903 302.015L775.75 302.385C783.51 305.596 792.07 307.2 801.427 307.2V306.8ZM775.907 302.017C768.333 298.695 761.957 294.046 756.778 288.069L756.475 288.331C761.696 294.354 768.12 299.038 775.746 302.383L775.907 302.017ZM756.778 288.069C751.598 282.093 747.878 275.053 745.619 266.946L745.234 267.054C747.508 275.214 751.255 282.307 756.475 288.331L756.778 288.069ZM745.427 266.8H736.427V267.2H745.427V266.8ZM736.227 267V303H736.627V267H736.227ZM736.427 302.8H691.627V303.2H736.427V302.8ZM691.827 303V195H691.427V303H691.827ZM691.627 195.2H736.427V194.8H691.627V195.2ZM736.227 195V231.8H736.627V195H736.227ZM736.427 232H745.227V231.6H736.427V232ZM745.42 231.852C748.742 219.494 755.382 209.734 765.343 202.562L765.11 202.238C755.071 209.466 748.378 219.306 745.033 231.748L745.42 231.852ZM765.345 202.561C775.306 195.257 787.33 191.6 801.427 191.6V191.2C787.257 191.2 775.147 194.877 765.108 202.239L765.345 202.561ZM787.685 263.341C791.326 266.982 795.911 268.8 801.427 268.8V268.4C796.009 268.4 791.528 266.618 787.968 263.059L787.685 263.341ZM801.427 268.8C806.942 268.8 811.463 266.982 814.971 263.339L814.683 263.061C811.257 266.618 806.845 268.4 801.427 268.4V268.8ZM814.971 263.339C818.61 259.565 820.427 254.847 820.427 249.2H820.027C820.027 254.753 818.244 259.368 814.683 263.061L814.971 263.339ZM820.427 249.2C820.427 243.553 818.609 238.9 814.968 235.259L814.685 235.541C818.244 239.1 820.027 243.647 820.027 249.2H820.427ZM814.973 235.264C811.466 231.487 806.944 229.6 801.427 229.6V230C806.842 230 811.254 231.847 814.68 235.536L814.973 235.264ZM801.427 229.6C797.793 229.6 794.491 230.475 791.525 232.228L791.728 232.572C794.629 230.858 797.86 230 801.427 230V229.6ZM791.527 232.226C788.694 233.845 786.468 236.14 784.851 239.104L785.202 239.296C786.785 236.394 788.959 234.155 791.726 232.574L791.527 232.226ZM784.851 239.104C783.233 242.07 782.427 245.437 782.427 249.2H782.827C782.827 245.496 783.62 242.196 785.202 239.296L784.851 239.104ZM782.427 249.2C782.427 254.845 784.175 259.562 787.68 263.336L787.973 263.064C784.544 259.371 782.827 254.755 782.827 249.2H782.427Z" fill="black"/>
</svg>
